<?xml version="1.0" standalone="no"?><!-- Generator: Gravit.io --><svg xmlns="http://www.w3.org/2000/svg" xmlns:xlink="http://www.w3.org/1999/xlink" style="isolation:isolate" viewBox="0 0 366.477 148.882" width="366.477" height="148.882"><defs><clipPath id="_clipPath_v6HqzRFjIWnhm7JPLsFuP6z90bCdHlwD"><rect width="366.477" height="148.882"/></clipPath></defs><g clip-path="url(#_clipPath_v6HqzRFjIWnhm7JPLsFuP6z90bCdHlwD)"><path d=" M 209.627 37.506 C 200.019 20.615 179.039 14.426 162.768 23.682 C 158.688 26.003 155.291 29.076 152.644 32.642 C 154.222 31.285 155.95 30.059 157.823 28.993 C 174.094 19.737 195.074 25.926 204.683 42.817 C 211.882 55.472 210.654 70.544 202.743 81.2 C 214.877 70.767 218.129 52.452 209.627 37.506 L 209.627 37.506 Z " fill-rule="evenodd" fill="rgb(255,255,255)"/><path d=" M 164.576 63.788 C 169.68 72.772 180.832 76.068 189.486 71.152 C 191.656 69.919 193.463 68.287 194.872 66.391 C 194.032 67.113 193.113 67.764 192.116 68.33 C 183.463 73.246 172.31 69.949 167.207 60.966 C 163.383 54.236 164.04 46.223 168.249 40.559 C 161.795 46.103 160.06 55.84 164.576 63.788 Z " fill-rule="evenodd" fill="rgb(255,255,255)"/><path d=" M 225.686 25.447 C 212.178 1.728 182.682 -6.963 159.806 6.035 C 154.069 9.294 149.294 13.609 145.571 18.617 C 147.791 16.711 150.22 14.989 152.854 13.493 C 175.73 0.495 205.226 9.186 218.735 32.905 C 228.856 50.676 227.13 71.841 216.008 86.805 C 233.068 72.155 237.64 46.435 225.686 25.447 L 225.686 25.447 Z " fill-rule="evenodd" fill="rgb(255,255,255)"/><path d=" M 178.476 48.525 C 180.357 48.525 182.161 49.272 183.491 50.602 C 184.821 51.932 185.568 53.736 185.568 55.617 C 185.568 59.534 182.393 62.709 178.476 62.709 C 174.559 62.709 171.384 59.534 171.384 55.617 C 171.384 51.7 174.559 48.525 178.476 48.525 L 178.476 48.525 Z " fill-rule="evenodd" fill="rgb(255,255,255)"/><g><path d=" M 0 122.083 L 0.573 114.796 L 1.329 100.573 L 1.64 90.512 C 1.659 89.426 1.669 88.349 1.669 87.262 C 1.669 86.447 1.659 85.118 1.64 83.255 C 4.143 83.313 6.151 83.343 7.665 83.343 C 9.12 83.343 11.119 83.294 13.651 83.217 C 16.193 83.129 18.337 83.08 20.103 83.08 C 22.635 83.08 24.517 83.245 25.73 83.566 C 26.952 83.886 28.058 84.4 29.038 85.089 C 30.028 85.788 30.843 86.593 31.483 87.524 C 32.123 88.456 32.609 89.513 32.929 90.697 C 33.249 91.88 33.414 93.093 33.414 94.325 C 33.414 96.867 32.803 99.196 31.57 101.301 C 30.338 103.406 28.611 104.978 26.38 106.026 C 24.148 107.064 21.636 107.588 18.861 107.588 C 17.833 107.588 16.649 107.471 15.31 107.238 C 15.164 106.375 14.873 105.085 14.466 103.367 C 14.049 101.65 13.709 100.379 13.447 99.555 C 14.282 99.71 15.145 99.788 16.047 99.788 C 17.959 99.788 19.375 99.322 20.316 98.4 C 21.247 97.478 21.713 96.353 21.713 95.024 C 21.713 94.374 21.607 93.801 21.403 93.297 C 21.189 92.792 20.859 92.385 20.404 92.055 C 19.957 91.735 19.453 91.531 18.9 91.434 C 18.356 91.337 17.726 91.288 17.027 91.288 C 16.348 91.288 15.64 91.308 14.902 91.347 L 12.516 91.512 C 12.273 95.169 12.089 99.244 11.953 103.717 C 11.72 111.866 11.594 116.756 11.594 118.386 L 11.594 122.083 L 5.928 122.025 C 5.133 122.025 3.153 122.044 0 122.083 Z " fill-rule="evenodd" fill="rgb(255,255,255)"/><path d=" M 36.626 122.083 L 37.13 115.961 L 38.226 94.694 L 38.537 83.255 C 41.166 83.294 43.145 83.313 44.475 83.313 C 46.202 83.313 48.103 83.294 50.189 83.255 L 49.549 91.987 L 48.511 113.497 L 48.287 122.083 C 46.25 122.063 44.426 122.053 42.796 122.053 L 36.626 122.083 L 36.626 122.083 Z " fill-rule="evenodd" fill="rgb(255,255,255)"/><path d=" M 57.378 101.301 C 57.737 99.438 57.961 98.157 58.058 97.449 C 58.155 96.751 58.31 95.645 58.513 94.141 C 63.966 92.938 68.652 92.336 72.562 92.336 C 74.794 92.336 76.84 92.588 78.694 93.093 C 80.547 93.588 81.993 94.403 83.03 95.519 C 84.069 96.634 84.592 98.235 84.592 100.321 C 84.592 101.379 84.447 103.765 84.165 107.481 C 83.884 111.187 83.671 116.058 83.525 122.083 C 81.663 122.044 79.809 122.025 77.976 122.025 C 76.19 122.025 74.289 122.044 72.281 122.083 C 72.543 119.997 72.824 115.689 73.144 109.159 C 72.426 109.509 71.863 109.761 71.456 109.907 C 71.048 110.062 70.34 110.295 69.322 110.605 C 68.293 110.916 67.497 111.168 66.925 111.381 C 66.353 111.595 65.848 111.866 65.421 112.196 C 64.994 112.517 64.694 112.856 64.519 113.205 C 64.335 113.545 64.247 113.933 64.247 114.36 C 64.247 115.01 64.509 115.573 65.023 116.038 C 65.538 116.494 66.353 116.727 67.478 116.727 C 67.876 116.727 68.303 116.698 68.769 116.63 C 69.225 116.562 69.855 116.407 70.651 116.145 C 70.098 117.581 69.438 119.677 68.672 122.432 C 67.042 122.703 65.499 122.839 64.044 122.839 C 61.696 122.839 59.736 122.51 58.174 121.86 C 56.612 121.2 55.409 120.142 54.565 118.687 C 53.721 117.222 53.304 115.767 53.304 114.302 C 53.304 113.409 53.459 112.536 53.769 111.682 C 54.08 110.828 54.565 109.994 55.234 109.179 C 55.894 108.364 56.67 107.665 57.553 107.093 C 58.446 106.511 59.658 105.968 61.191 105.453 C 62.734 104.939 64.684 104.464 67.051 104.008 C 68.031 103.814 68.934 103.61 69.758 103.397 C 70.573 103.174 71.165 102.989 71.514 102.824 C 71.863 102.659 72.145 102.475 72.358 102.261 C 72.581 102.038 72.737 101.815 72.824 101.582 C 72.921 101.34 72.97 101.097 72.97 100.835 C 72.97 100.108 72.669 99.545 72.067 99.157 C 71.466 98.759 70.573 98.565 69.409 98.565 C 66.159 98.565 62.152 99.477 57.378 101.301 L 57.378 101.301 Z " fill-rule="evenodd" fill="rgb(255,255,255)"/><path d=" M 89.715 121.559 C 89.638 120.724 89.57 119.842 89.492 118.92 C 89.414 117.998 89.298 116.727 89.123 115.117 L 88.9 113.06 C 90.734 113.787 92.306 114.331 93.625 114.68 C 94.945 115.039 96.167 115.214 97.273 115.214 C 98.204 115.214 98.952 115.126 99.524 114.961 C 100.106 114.787 100.523 114.544 100.785 114.224 C 101.047 113.904 101.183 113.574 101.183 113.234 C 101.183 112.924 101.086 112.633 100.882 112.332 C 100.688 112.041 100.242 111.643 99.543 111.129 C 98.001 109.994 96.642 108.956 95.468 108.025 C 94.295 107.103 93.411 106.278 92.82 105.55 C 92.228 104.832 91.772 104.056 91.462 103.222 C 91.151 102.388 90.996 101.524 90.996 100.641 C 90.996 99.06 91.442 97.595 92.344 96.227 C 93.237 94.869 94.566 93.879 96.313 93.258 C 98.059 92.647 100.193 92.336 102.706 92.336 C 105.336 92.336 108.683 92.686 112.767 93.384 L 113.233 101.301 C 110.953 100.408 108.76 99.962 106.645 99.962 C 105.161 99.962 104.074 100.117 103.405 100.418 C 102.735 100.728 102.405 101.194 102.405 101.834 C 102.405 102.038 102.444 102.242 102.522 102.426 C 102.59 102.621 102.735 102.814 102.929 103.028 C 103.123 103.232 103.376 103.445 103.667 103.668 C 103.958 103.882 104.666 104.386 105.801 105.182 C 106.936 105.977 107.819 106.637 108.459 107.151 C 109.517 107.986 110.322 108.752 110.885 109.46 C 111.438 110.178 111.865 110.935 112.156 111.74 C 112.447 112.545 112.592 113.39 112.592 114.282 C 112.592 115.631 112.262 116.863 111.612 117.988 C 110.962 119.124 109.973 120.065 108.653 120.822 C 107.344 121.578 105.917 122.102 104.375 122.403 C 102.842 122.694 101.261 122.839 99.63 122.839 C 98.534 122.839 97.157 122.742 95.498 122.558 C 93.838 122.364 91.917 122.034 89.715 121.559 L 89.715 121.559 Z " fill-rule="evenodd" fill="rgb(255,255,255)"/><path d=" M 118.113 122.083 L 118.928 108.374 L 119.394 97.643 L 119.452 93.035 C 121.538 93.074 123.372 93.093 124.963 93.093 C 126.767 93.093 128.514 93.074 130.221 93.035 L 130.018 96.857 C 130.599 96.101 131.104 95.509 131.512 95.111 C 131.909 94.704 132.414 94.316 132.996 93.937 C 133.588 93.568 134.189 93.278 134.82 93.064 C 135.441 92.841 136.149 92.666 136.925 92.53 C 137.701 92.404 138.516 92.336 139.361 92.336 C 140.331 92.336 141.223 92.414 142.038 92.579 C 142.853 92.734 143.552 92.938 144.144 93.19 C 144.726 93.433 145.24 93.714 145.677 94.044 C 146.113 94.364 146.491 94.723 146.821 95.131 C 147.161 95.538 147.539 96.13 147.976 96.906 C 148.81 95.703 149.684 94.781 150.615 94.151 C 151.537 93.53 152.594 93.074 153.778 92.773 C 154.961 92.482 156.174 92.336 157.426 92.336 C 159.065 92.336 160.618 92.569 162.073 93.045 C 163.528 93.52 164.731 94.335 165.663 95.509 C 166.604 96.673 167.07 98.177 167.07 100.04 C 167.07 100.903 167.011 102.223 166.885 103.989 C 166.769 105.745 166.604 108.771 166.39 113.06 C 166.177 117.348 166.06 120.356 166.041 122.083 C 164.295 122.044 162.607 122.025 160.977 122.025 C 158.988 122.025 156.912 122.044 154.729 122.083 C 154.913 119.677 155.097 116.659 155.282 113.031 C 155.476 109.402 155.563 106.889 155.563 105.492 C 155.563 104.27 155.427 103.348 155.146 102.747 C 154.864 102.145 154.505 101.738 154.069 101.514 C 153.632 101.291 153.147 101.185 152.623 101.185 C 152.07 101.185 151.585 101.291 151.168 101.495 C 150.722 101.728 150.334 102.077 149.994 102.553 C 149.548 103.183 149.179 103.979 148.907 104.93 C 148.674 105.677 148.5 106.802 148.374 108.335 C 148.238 109.887 148.131 111.934 148.054 114.467 L 147.821 122.083 C 145.783 122.044 143.94 122.025 142.31 122.025 C 140.632 122.025 138.662 122.044 136.392 122.083 C 136.567 120.395 136.76 117.561 136.983 113.584 C 137.217 109.606 137.323 106.948 137.323 105.609 C 137.323 104.474 137.217 103.62 136.983 103.057 C 136.76 102.484 136.44 102.038 136.023 101.699 C 135.615 101.359 135.072 101.185 134.384 101.185 C 133.646 101.185 132.996 101.398 132.443 101.834 C 131.89 102.271 131.415 102.892 131.026 103.707 C 130.638 104.522 130.357 105.647 130.202 107.074 C 130.037 108.5 129.891 110.683 129.775 113.613 C 129.649 116.553 129.571 119.376 129.532 122.083 C 127.243 122.044 125.39 122.025 123.963 122.025 C 122.392 122.025 120.442 122.044 118.113 122.083 Z " fill-rule="evenodd" fill="rgb(255,255,255)"/><path d=" M 174.997 101.301 C 175.356 99.438 175.579 98.157 175.676 97.449 C 175.773 96.751 175.928 95.645 176.132 94.141 C 181.584 92.938 186.27 92.336 190.18 92.336 C 192.412 92.336 194.459 92.588 196.312 93.093 C 198.165 93.588 199.611 94.403 200.649 95.519 C 201.687 96.634 202.211 98.235 202.211 100.321 C 202.211 101.379 202.065 103.765 201.784 107.481 C 201.503 111.187 201.289 116.058 201.143 122.083 C 199.281 122.044 197.428 122.025 195.594 122.025 C 193.809 122.025 191.907 122.044 189.899 122.083 C 190.161 119.997 190.442 115.689 190.762 109.159 C 190.044 109.509 189.482 109.761 189.074 109.907 C 188.667 110.062 187.959 110.295 186.94 110.605 C 185.911 110.916 185.116 111.168 184.543 111.381 C 183.971 111.595 183.467 111.866 183.04 112.196 C 182.613 112.517 182.312 112.856 182.137 113.205 C 181.953 113.545 181.866 113.933 181.866 114.36 C 181.866 115.01 182.127 115.573 182.642 116.038 C 183.156 116.494 183.971 116.727 185.097 116.727 C 185.494 116.727 185.921 116.698 186.387 116.63 C 186.843 116.562 187.473 116.407 188.269 116.145 C 187.716 117.581 187.056 119.677 186.29 122.432 C 184.66 122.703 183.117 122.839 181.662 122.839 C 179.314 122.839 177.354 122.51 175.792 121.86 C 174.23 121.2 173.027 120.142 172.183 118.687 C 171.339 117.222 170.922 115.767 170.922 114.302 C 170.922 113.409 171.077 112.536 171.388 111.682 C 171.698 110.828 172.183 109.994 172.853 109.179 C 173.512 108.364 174.288 107.665 175.171 107.093 C 176.064 106.511 177.277 105.968 178.81 105.453 C 180.352 104.939 182.302 104.464 184.67 104.008 C 185.65 103.814 186.552 103.61 187.376 103.397 C 188.191 103.174 188.783 102.989 189.132 102.824 C 189.482 102.659 189.763 102.475 189.977 102.261 C 190.2 102.038 190.355 101.815 190.442 101.582 C 190.539 101.34 190.588 101.097 190.588 100.835 C 190.588 100.108 190.287 99.545 189.686 99.157 C 189.084 98.759 188.191 98.565 187.027 98.565 C 183.777 98.565 179.77 99.477 174.997 101.301 L 174.997 101.301 Z " fill-rule="evenodd" fill="rgb(255,255,255)"/><path d=" M 215.386 122.083 L 212.379 112.749 L 205.587 93.035 C 207.751 93.074 209.749 93.093 211.612 93.093 C 213.543 93.093 215.357 93.074 217.065 93.035 C 217.385 94.345 218.016 96.634 218.967 99.904 C 219.917 103.174 220.955 107.074 222.091 111.585 L 222.828 109.228 C 222.944 108.936 223.391 107.724 224.167 105.58 L 228.688 93.035 C 230.735 93.074 232.666 93.093 234.48 93.093 C 236.362 93.093 238.312 93.074 240.34 93.035 L 236.42 101.485 L 229.115 118.27 L 227.553 122.083 C 225.312 122.044 223.342 122.025 221.635 122.025 C 219.782 122.025 217.695 122.044 215.386 122.083 Z " fill-rule="evenodd" fill="rgb(255,255,255)"/><path d=" M 292.052 122.083 C 290.025 122.044 288.336 122.025 286.988 122.025 C 285.465 122.025 283.621 122.044 281.458 122.083 L 281.622 118.493 C 280.885 119.211 280.235 119.793 279.692 120.239 C 279.139 120.685 278.431 121.112 277.567 121.53 C 276.704 121.947 275.782 122.267 274.783 122.5 C 273.793 122.723 272.765 122.839 271.697 122.839 C 269.883 122.839 268.175 122.51 266.594 121.84 C 265.013 121.18 263.664 120.239 262.548 119.017 C 261.433 117.794 260.598 116.339 260.045 114.67 C 259.492 112.992 259.221 111.246 259.221 109.451 C 259.221 106.889 259.725 104.386 260.734 101.941 C 261.733 99.496 263.053 97.575 264.673 96.178 C 266.303 94.771 268.137 93.782 270.174 93.2 C 272.212 92.627 274.424 92.336 276.801 92.336 C 278.373 92.336 280.216 92.472 282.321 92.744 C 282.467 90.483 282.554 87.32 282.602 83.255 C 284.931 83.294 286.833 83.313 288.307 83.313 C 290.218 83.313 292.14 83.294 294.089 83.255 C 293.556 88.882 293.081 95.761 292.673 103.882 C 292.266 111.992 292.052 118.066 292.052 122.083 L 292.052 122.083 Z  M 281.933 100.137 C 280.924 99.904 279.973 99.788 279.081 99.788 C 277.228 99.788 275.656 100.146 274.365 100.855 C 273.075 101.563 272.076 102.669 271.377 104.182 C 270.688 105.686 270.339 107.171 270.339 108.626 C 270.339 109.732 270.533 110.722 270.921 111.595 C 271.319 112.478 271.911 113.176 272.726 113.69 C 273.531 114.205 274.433 114.457 275.423 114.457 C 276.471 114.457 277.421 114.166 278.295 113.574 C 279.158 112.992 279.857 112.129 280.4 110.993 C 280.944 109.858 281.322 108.5 281.516 106.938 C 281.72 105.376 281.855 103.106 281.933 100.137 L 281.933 100.137 Z " fill-rule="evenodd" fill="rgb(255,255,255)"/><path d=" M 326.611 113.525 C 326.368 114.661 325.903 117.397 325.214 121.733 C 323.011 122.18 321.158 122.471 319.655 122.616 C 318.151 122.762 316.637 122.839 315.094 122.839 C 312.834 122.839 310.748 122.684 308.856 122.374 C 306.955 122.063 305.315 121.5 303.937 120.705 C 302.56 119.919 301.405 118.929 300.474 117.746 C 299.542 116.562 298.834 115.155 298.349 113.525 C 297.864 111.895 297.621 110.217 297.621 108.5 C 297.621 106.074 298.106 103.697 299.076 101.379 C 300.037 99.06 301.289 97.245 302.812 95.946 C 304.345 94.636 306.101 93.704 308.09 93.161 C 310.079 92.608 312.126 92.336 314.212 92.336 C 316.366 92.336 318.432 92.588 320.392 93.093 C 322.361 93.588 324.021 94.471 325.389 95.713 C 326.757 96.964 327.727 98.371 328.309 99.943 C 328.881 101.514 329.172 103.212 329.172 105.027 C 329.172 106.113 329.056 107.306 328.823 108.636 L 308.827 108.665 C 308.808 108.966 308.798 109.237 308.798 109.489 C 308.798 111.527 309.535 113.031 311 114.001 C 312.465 114.961 314.251 115.446 316.366 115.446 C 317.617 115.446 319.053 115.301 320.663 115.01 C 322.264 114.719 324.253 114.224 326.611 113.525 L 326.611 113.525 Z  M 309.05 104.328 L 318.461 104.328 C 318.48 104.008 318.49 103.736 318.49 103.503 C 318.49 102.523 318.316 101.679 317.966 100.981 C 317.607 100.282 317.103 99.778 316.453 99.458 C 315.793 99.137 315.056 98.972 314.241 98.972 C 313.668 98.972 313.125 99.06 312.591 99.244 C 312.058 99.419 311.573 99.69 311.146 100.04 C 310.719 100.389 310.36 100.787 310.079 101.243 C 309.797 101.689 309.584 102.135 309.448 102.553 C 309.322 102.979 309.186 103.571 309.05 104.328 L 309.05 104.328 Z " fill-rule="evenodd" fill="rgb(255,255,255)"/><path d=" M 349.799 92.336 C 352.157 92.336 354.417 92.695 356.591 93.413 C 358.764 94.141 360.597 95.169 362.091 96.527 C 363.595 97.886 364.701 99.467 365.41 101.281 C 366.118 103.086 366.477 105.036 366.477 107.122 C 366.477 109.15 366.157 111.071 365.526 112.905 C 364.886 114.728 363.809 116.446 362.295 118.047 C 360.772 119.647 358.841 120.85 356.503 121.646 C 354.165 122.442 351.681 122.839 349.062 122.839 C 346.656 122.839 344.337 122.49 342.115 121.792 C 339.903 121.083 338.04 120.065 336.556 118.716 C 335.062 117.367 333.946 115.757 333.199 113.885 C 332.452 112.012 332.073 110.033 332.073 107.976 C 332.073 105.909 332.442 103.93 333.17 102.058 C 333.898 100.185 335.052 98.497 336.643 97.003 C 338.225 95.499 340.185 94.354 342.513 93.549 C 344.851 92.744 347.277 92.336 349.799 92.336 Z  M 349.605 100.719 C 348.392 100.719 347.306 101.029 346.355 101.65 C 345.414 102.281 344.696 103.193 344.211 104.386 C 343.726 105.589 343.483 106.899 343.483 108.316 C 343.483 110.392 344.007 111.983 345.045 113.089 C 346.093 114.195 347.403 114.748 348.974 114.748 C 350.168 114.748 351.245 114.428 352.195 113.797 C 353.137 113.167 353.855 112.225 354.34 110.993 C 354.825 109.751 355.067 108.432 355.067 107.006 C 355.067 105.842 354.873 104.784 354.495 103.833 C 354.117 102.892 353.496 102.135 352.632 101.573 C 351.769 101 350.76 100.719 349.605 100.719 L 349.605 100.719 Z " fill-rule="evenodd" fill="rgb(255,255,255)"/><path d=" M 243.066 93.156 L 254.815 92.979 L 253.932 122.083 L 241.74 122.083 L 243.066 93.156 L 243.066 93.156 Z " fill-rule="evenodd" fill="rgb(255,255,255)"/></g><path d=" M 212.239 146.375 C 212.181 145.448 212.112 144.706 212.036 144.15 C 212.541 144.367 212.994 144.516 213.388 144.599 C 213.783 144.684 214.129 144.726 214.425 144.726 C 214.82 144.726 215.132 144.671 215.364 144.559 C 215.596 144.447 215.713 144.284 215.713 144.065 C 215.713 143.991 215.702 143.92 215.679 143.853 C 215.655 143.784 215.614 143.708 215.55 143.623 C 215.486 143.538 215.396 143.446 215.279 143.346 L 214.003 142.271 C 213.705 142.027 213.496 141.851 213.379 141.741 C 213.14 141.518 212.952 141.31 212.819 141.118 C 212.686 140.926 212.59 140.731 212.528 140.533 C 212.466 140.334 212.436 140.124 212.436 139.901 C 212.436 139.635 212.484 139.373 212.58 139.119 C 212.677 138.864 212.822 138.625 213.016 138.401 C 213.209 138.18 213.464 137.988 213.785 137.827 C 214.104 137.664 214.444 137.555 214.809 137.497 C 215.174 137.436 215.548 137.407 215.936 137.407 C 216.695 137.407 217.521 137.492 218.416 137.662 C 218.428 137.963 218.444 138.238 218.462 138.488 C 218.48 138.739 218.524 139.179 218.591 139.807 C 218.175 139.646 217.797 139.534 217.452 139.471 C 217.11 139.409 216.814 139.378 216.566 139.378 C 216.216 139.378 215.922 139.44 215.69 139.568 C 215.458 139.695 215.341 139.851 215.341 140.039 C 215.341 140.126 215.36 140.211 215.396 140.294 C 215.431 140.376 215.499 140.475 215.598 140.586 C 215.697 140.696 215.827 140.819 215.991 140.953 C 216.154 141.085 216.408 141.283 216.757 141.545 L 217.244 141.918 C 217.388 142.032 217.544 142.168 217.712 142.329 C 217.877 142.492 218.021 142.651 218.143 142.807 C 218.267 142.966 218.359 143.109 218.425 143.24 C 218.49 143.37 218.54 143.502 218.57 143.636 C 218.602 143.77 218.618 143.913 218.618 144.065 C 218.618 144.458 218.522 144.831 218.329 145.186 C 218.136 145.544 217.861 145.837 217.508 146.065 C 217.152 146.294 216.762 146.453 216.337 146.545 C 215.913 146.636 215.465 146.683 214.995 146.683 C 214.267 146.683 213.347 146.581 212.239 146.375 L 212.239 146.375 Z  M 219.922 146.509 C 220.034 145.383 220.115 144.44 220.167 143.678 C 220.218 142.919 220.27 141.909 220.321 140.649 C 220.374 139.391 220.399 138.556 220.399 138.145 L 220.392 137.568 C 221.45 137.577 222.73 137.582 224.231 137.582 C 225.615 137.582 226.836 137.578 227.894 137.568 L 227.88 137.785 C 227.875 137.836 227.864 138.026 227.848 138.355 L 227.807 139.067 C 227.798 139.219 227.793 139.373 227.793 139.532 C 226.93 139.496 226.205 139.478 225.617 139.478 C 224.972 139.478 224.537 139.48 224.311 139.483 C 224.084 139.485 223.733 139.494 223.254 139.512 L 223.176 141.014 C 223.705 141.027 224.321 141.034 225.023 141.034 C 225.275 141.034 225.943 141.018 227.026 140.987 C 226.98 141.545 226.939 142.211 226.898 142.984 C 226.122 142.975 225.525 142.971 225.108 142.971 C 224.488 142.971 223.795 142.984 223.028 143.011 L 222.944 144.606 L 223.717 144.606 C 223.947 144.606 224.419 144.599 225.135 144.586 L 226.528 144.552 C 226.735 144.547 227.079 144.53 227.563 144.499 C 227.511 145.147 227.465 145.817 227.428 146.509 C 226.336 146.5 225.138 146.496 223.834 146.496 L 220.876 146.502 L 219.921 146.509 L 219.922 146.509 Z  M 234.407 141.308 C 235.02 141.317 235.605 141.321 236.16 141.321 C 237.108 141.321 237.852 141.317 238.389 141.308 C 238.331 141.904 238.274 142.751 238.214 143.844 C 238.157 144.938 238.12 145.763 238.107 146.321 C 237.59 146.413 237.163 146.48 236.826 146.522 C 236.486 146.565 236.08 146.601 235.605 146.634 C 235.13 146.668 234.705 146.683 234.333 146.683 C 233.723 146.683 233.126 146.636 232.539 146.54 C 231.951 146.444 231.426 146.288 230.96 146.076 C 230.496 145.861 230.111 145.571 229.801 145.204 C 229.491 144.838 229.253 144.402 229.085 143.902 C 228.917 143.399 228.832 142.881 228.832 142.342 C 228.832 141.458 229.06 140.636 229.512 139.876 C 229.964 139.116 230.616 138.515 231.465 138.071 C 232.314 137.628 233.411 137.407 234.756 137.407 C 235.738 137.407 236.824 137.524 238.017 137.756 C 238.017 138.39 238.044 139.096 238.099 139.874 C 237.776 139.769 237.516 139.691 237.317 139.635 C 237.117 139.581 236.883 139.53 236.617 139.485 C 236.351 139.438 236.096 139.405 235.857 139.384 C 235.616 139.362 235.403 139.351 235.215 139.351 C 234.721 139.351 234.255 139.42 233.815 139.557 C 233.377 139.695 232.998 139.905 232.684 140.191 C 232.367 140.475 232.13 140.817 231.974 141.212 C 231.816 141.61 231.738 142.027 231.738 142.467 C 231.738 142.914 231.828 143.314 232.007 143.665 C 232.188 144.016 232.472 144.282 232.862 144.465 C 233.253 144.648 233.689 144.74 234.171 144.74 C 234.57 144.74 235.008 144.682 235.483 144.565 L 235.552 143.171 C 235.263 143.162 235.091 143.158 235.038 143.158 L 234.327 143.165 L 234.372 142.359 C 234.377 142.271 234.384 142.144 234.393 141.981 C 234.402 141.818 234.407 141.592 234.407 141.309 L 234.407 141.308 Z  M 240.151 137.568 C 240.849 137.577 241.342 137.582 241.629 137.582 C 241.987 137.582 242.464 137.578 243.061 137.568 L 242.859 140.354 C 242.82 140.877 242.788 141.368 242.77 141.829 C 242.749 142.287 242.737 142.604 242.737 142.778 C 242.737 143.111 242.763 143.388 242.813 143.611 C 242.861 143.833 242.951 144.023 243.081 144.177 C 243.213 144.333 243.393 144.449 243.625 144.527 C 243.857 144.606 244.098 144.646 244.351 144.646 C 244.566 144.646 244.768 144.617 244.956 144.561 C 245.106 144.514 245.237 144.449 245.354 144.364 C 245.457 144.286 245.549 144.197 245.624 144.092 C 245.718 143.967 245.801 143.81 245.874 143.623 C 245.946 143.446 245.998 143.218 246.035 142.937 C 246.074 142.651 246.129 142.001 246.194 140.986 C 246.253 140.122 246.297 139.331 246.326 138.614 C 246.354 137.917 246.377 137.568 246.4 137.568 C 247.077 137.568 247.612 137.568 248.002 137.568 L 249.367 137.568 L 249.046 142.222 C 249.042 142.309 249.039 142.38 249.039 142.436 C 249.02 143.346 248.963 143.987 248.867 144.36 C 248.77 144.733 248.61 145.059 248.385 145.334 C 248.16 145.609 247.834 145.857 247.402 146.078 C 246.971 146.297 246.482 146.453 245.936 146.545 C 245.388 146.636 244.834 146.683 244.272 146.683 C 243.77 146.683 243.285 146.648 242.819 146.578 C 242.388 146.509 242 146.406 241.654 146.274 C 241.309 146.141 241.009 145.984 240.752 145.805 C 240.52 145.64 240.341 145.47 240.215 145.298 C 240.089 145.124 239.99 144.918 239.919 144.677 C 239.838 144.407 239.797 144.116 239.797 143.806 C 239.797 143.701 239.802 143.544 239.811 143.332 C 239.82 143.12 239.838 142.814 239.87 142.416 L 239.958 141.368 C 239.978 141.093 240.004 140.689 240.029 140.157 L 240.151 137.568 L 240.151 137.568 Z  M 250.446 146.509 C 250.533 145.741 250.602 145.048 250.653 144.434 C 250.703 143.817 250.746 143.102 250.783 142.291 C 250.822 141.478 250.85 140.622 250.868 139.72 C 250.886 138.817 250.896 138.1 250.896 137.568 C 251.456 137.582 251.908 137.588 252.252 137.588 C 252.61 137.588 253.048 137.577 253.562 137.559 C 254.079 137.539 254.579 137.528 255.068 137.528 C 255.642 137.528 256.151 137.55 256.601 137.595 C 256.936 137.624 257.241 137.689 257.517 137.785 C 257.792 137.881 258.024 137.997 258.212 138.133 C 258.4 138.272 258.558 138.426 258.682 138.596 C 258.808 138.766 258.905 138.964 258.976 139.195 C 259.045 139.422 259.079 139.668 259.079 139.93 C 259.079 140.222 259.04 140.497 258.965 140.752 C 258.889 141.006 258.77 141.248 258.604 141.471 C 258.441 141.697 258.235 141.891 257.987 142.054 C 257.737 142.217 257.388 142.385 256.941 142.555 L 257.29 143.388 C 257.388 143.618 257.494 143.855 257.606 144.096 L 258.506 146.018 C 258.547 146.1 258.618 146.263 258.721 146.509 C 257.98 146.5 257.482 146.496 257.227 146.496 C 256.903 146.496 256.376 146.5 255.639 146.509 C 255.568 146.281 255.437 145.859 255.249 145.242 C 255.173 144.985 255.109 144.784 255.054 144.646 C 254.948 144.335 254.788 143.899 254.579 143.339 L 253.886 141.482 C 254.129 141.527 254.365 141.549 254.599 141.549 C 254.926 141.549 255.221 141.503 255.488 141.406 C 255.754 141.31 255.956 141.163 256.094 140.962 C 256.229 140.763 256.298 140.553 256.298 140.33 C 256.298 140.144 256.247 139.979 256.144 139.838 C 256.041 139.697 255.878 139.592 255.658 139.523 C 255.435 139.454 255.093 139.418 254.632 139.418 C 254.476 139.418 254.313 139.42 254.145 139.427 C 253.978 139.434 253.783 139.44 253.558 139.445 C 253.498 140.338 253.448 141.431 253.402 142.718 C 253.356 144.005 253.326 145.269 253.312 146.509 C 252.564 146.5 252.078 146.496 251.853 146.496 C 251.593 146.496 251.123 146.5 250.446 146.509 L 250.446 146.509 Z  M 258.896 146.509 L 259.454 145.566 L 262.928 139.185 L 263.297 138.473 C 263.405 138.263 263.554 137.961 263.747 137.568 C 264.536 137.577 265.113 137.582 265.475 137.582 C 266.106 137.582 266.691 137.578 267.231 137.568 L 268.211 140.3 L 270.21 145.553 L 270.6 146.509 C 269.824 146.5 269.354 146.496 269.188 146.496 C 268.812 146.496 268.257 146.5 267.527 146.509 C 267.329 145.787 267.045 144.938 266.671 143.962 L 263.286 143.962 C 262.898 144.733 262.497 145.582 262.081 146.509 C 261.246 146.5 260.734 146.496 260.546 146.496 C 260.204 146.496 259.656 146.5 258.896 146.509 Z  M 264.098 142.059 L 266.187 142.059 C 265.666 140.519 265.381 139.67 265.331 139.514 C 265.037 140.155 264.787 140.68 264.58 141.091 L 264.098 142.059 Z  M 271.316 146.509 L 271.449 145.133 L 271.711 140.47 L 271.784 138.589 L 271.784 137.568 C 272.479 137.577 273.094 137.582 273.627 137.582 C 274.007 137.582 274.544 137.578 275.233 137.568 L 278.122 142.655 L 278.522 143.401 C 278.568 142.669 278.613 141.639 278.662 140.314 C 278.71 138.991 278.733 138.075 278.733 137.568 C 279.286 137.577 279.729 137.582 280.062 137.582 C 280.213 137.582 280.654 137.578 281.381 137.568 L 281.223 139.521 L 280.924 144.943 L 280.885 146.509 C 280.3 146.5 279.756 146.496 279.247 146.496 C 278.824 146.496 278.242 146.5 277.496 146.509 C 277.262 146.08 277.09 145.77 276.977 145.577 L 275.848 143.71 C 275.474 143.098 275.132 142.512 274.818 141.954 C 274.611 141.598 274.4 141.21 274.179 140.785 L 274.042 143.893 L 273.978 146.509 C 273.42 146.5 272.995 146.496 272.704 146.496 C 272.456 146.496 271.995 146.5 271.316 146.509 L 271.316 146.509 Z  M 290.563 144.337 C 290.51 144.592 290.446 144.95 290.37 145.406 C 290.297 145.863 290.246 146.219 290.219 146.469 C 289.259 146.612 288.401 146.683 287.648 146.683 C 286.921 146.683 286.244 146.594 285.62 146.418 C 284.993 146.241 284.419 145.951 283.896 145.548 C 283.373 145.144 282.999 144.668 282.776 144.123 C 282.551 143.578 282.439 142.968 282.439 142.291 C 282.439 141.5 282.59 140.79 282.893 140.16 C 283.196 139.53 283.632 139.002 284.199 138.582 C 284.768 138.16 285.39 137.861 286.067 137.68 C 286.744 137.499 287.446 137.407 288.167 137.407 C 288.832 137.407 289.654 137.492 290.631 137.662 L 290.645 138.209 C 290.652 138.448 290.666 138.71 290.682 138.998 L 290.728 139.74 C 290.203 139.619 289.778 139.539 289.452 139.496 C 289.126 139.454 288.823 139.431 288.545 139.431 C 287.937 139.431 287.394 139.55 286.907 139.784 C 286.423 140.021 286.039 140.363 285.762 140.812 C 285.484 141.261 285.344 141.759 285.344 142.304 C 285.344 142.801 285.461 143.227 285.695 143.585 C 285.927 143.94 286.244 144.215 286.641 144.409 C 287.038 144.603 287.529 144.699 288.112 144.699 C 288.431 144.699 288.777 144.675 289.152 144.626 C 289.528 144.577 289.998 144.481 290.563 144.337 Z  M 288.91 147.052 C 288.672 147.497 288.5 147.827 288.392 148.042 L 287.974 148.882 C 287.313 148.868 286.868 148.862 286.634 148.862 C 286.515 148.862 286.06 148.869 285.275 148.882 C 285.939 148.019 286.402 147.398 286.666 147.018 C 286.962 147.045 287.18 147.061 287.325 147.065 C 287.467 147.07 287.68 147.072 287.963 147.072 C 288.151 147.072 288.468 147.065 288.91 147.052 L 288.91 147.052 Z  M 290.636 146.509 L 291.194 145.566 L 294.668 139.185 L 295.038 138.473 C 295.146 138.263 295.295 137.961 295.488 137.568 C 296.277 137.577 296.853 137.582 297.216 137.582 C 297.847 137.582 298.432 137.578 298.971 137.568 L 299.951 140.3 L 301.95 145.553 L 302.34 146.509 C 301.564 146.5 301.094 146.496 300.929 146.496 C 300.552 146.496 299.997 146.5 299.267 146.509 C 299.07 145.787 298.785 144.938 298.411 143.962 L 295.026 143.962 C 294.638 144.733 294.237 145.582 293.821 146.509 C 292.986 146.5 292.474 146.496 292.286 146.496 C 291.944 146.496 291.396 146.5 290.636 146.509 Z  M 295.839 142.059 L 297.927 142.059 C 297.406 140.519 297.121 139.67 297.071 139.514 C 296.777 140.155 296.527 140.68 296.321 141.091 L 295.839 142.059 Z  M 306.512 146.509 C 306.613 145.513 306.68 144.717 306.716 144.119 C 306.771 143.227 306.826 142.074 306.881 140.66 C 306.921 139.577 306.941 138.801 306.941 138.335 L 306.941 137.568 C 307.464 137.582 307.917 137.588 308.297 137.588 C 308.665 137.588 309.144 137.577 309.741 137.559 C 310.335 137.539 310.895 137.528 311.419 137.528 C 312.017 137.528 312.543 137.563 312.995 137.633 C 313.447 137.704 313.867 137.847 314.259 138.066 C 314.65 138.285 314.978 138.571 315.242 138.924 C 315.506 139.277 315.708 139.691 315.845 140.164 C 315.985 140.64 316.054 141.127 316.054 141.63 C 316.054 142.124 316.001 142.597 315.894 143.053 C 315.786 143.511 315.636 143.922 315.444 144.288 C 315.251 144.655 315.026 144.97 314.769 145.236 C 314.51 145.499 314.216 145.725 313.886 145.913 C 313.64 146.053 313.39 146.163 313.14 146.241 C 312.889 146.319 312.548 146.382 312.112 146.431 C 311.63 146.482 311.081 146.509 310.468 146.509 L 307.754 146.489 C 307.499 146.489 307.086 146.496 306.512 146.509 L 306.512 146.509 Z  M 309.417 144.539 C 309.663 144.557 309.92 144.565 310.189 144.565 C 310.645 144.565 311.054 144.525 311.411 144.447 C 311.77 144.369 312.082 144.201 312.353 143.944 C 312.623 143.685 312.825 143.354 312.954 142.952 C 313.085 142.548 313.149 142.135 313.149 141.71 C 313.149 141.192 313.053 140.754 312.86 140.396 C 312.669 140.041 312.412 139.793 312.093 139.655 C 311.774 139.514 311.341 139.445 310.79 139.445 C 310.468 139.445 310.09 139.458 309.651 139.485 L 309.417 144.539 L 309.417 144.539 Z  M 317.177 146.509 C 317.436 143.001 317.567 140.305 317.567 138.412 L 317.56 137.568 C 318.344 137.577 318.867 137.582 319.131 137.582 C 319.253 137.582 319.735 137.578 320.577 137.568 C 320.495 138.551 320.431 139.481 320.38 140.358 C 320.316 141.58 320.27 142.725 320.242 143.788 C 320.215 144.851 320.201 145.758 320.201 146.509 L 318.826 146.496 C 318.558 146.496 318.007 146.5 317.176 146.509 L 317.177 146.509 Z  M 327.251 141.308 C 327.864 141.317 328.449 141.321 329.004 141.321 C 329.952 141.321 330.696 141.317 331.233 141.308 C 331.175 141.904 331.118 142.751 331.058 143.844 C 331.001 144.938 330.964 145.763 330.95 146.321 C 330.434 146.413 330.007 146.48 329.67 146.522 C 329.33 146.565 328.924 146.601 328.449 146.634 C 327.974 146.668 327.549 146.683 327.177 146.683 C 326.567 146.683 325.97 146.636 325.383 146.54 C 324.795 146.444 324.27 146.288 323.804 146.076 C 323.34 145.861 322.955 145.571 322.645 145.204 C 322.335 144.838 322.097 144.402 321.929 143.902 C 321.762 143.399 321.677 142.881 321.677 142.342 C 321.677 141.458 321.904 140.636 322.356 139.876 C 322.808 139.116 323.46 138.515 324.309 138.071 C 325.158 137.628 326.255 137.407 327.6 137.407 C 328.582 137.407 329.668 137.524 330.861 137.756 C 330.861 138.39 330.889 139.096 330.944 139.874 C 330.62 139.769 330.36 139.691 330.161 139.635 C 329.961 139.581 329.727 139.53 329.461 139.485 C 329.195 139.438 328.94 139.405 328.701 139.384 C 328.46 139.362 328.247 139.351 328.059 139.351 C 327.565 139.351 327.099 139.42 326.659 139.557 C 326.221 139.695 325.842 139.905 325.528 140.191 C 325.211 140.475 324.974 140.817 324.818 141.212 C 324.66 141.61 324.582 142.027 324.582 142.467 C 324.582 142.914 324.672 143.314 324.851 143.665 C 325.032 144.016 325.316 144.282 325.707 144.465 C 326.097 144.648 326.533 144.74 327.015 144.74 C 327.414 144.74 327.852 144.682 328.327 144.565 L 328.396 143.171 C 328.107 143.162 327.935 143.158 327.882 143.158 L 327.171 143.165 L 327.217 142.359 C 327.222 142.271 327.228 142.144 327.237 141.981 C 327.246 141.818 327.251 141.592 327.251 141.309 L 327.251 141.308 Z  M 332.628 146.509 C 332.887 143.001 333.018 140.305 333.018 138.412 L 333.011 137.568 C 333.796 137.577 334.319 137.582 334.583 137.582 C 334.705 137.582 335.187 137.578 336.029 137.568 C 335.946 138.551 335.882 139.481 335.831 140.358 C 335.767 141.58 335.721 142.725 335.694 143.788 C 335.666 144.851 335.653 145.758 335.653 146.509 L 334.278 146.496 C 334.009 146.496 333.459 146.5 332.628 146.509 L 332.628 146.509 Z  M 339.345 146.509 C 339.565 144.387 339.699 142.05 339.742 139.498 L 336.876 139.565 L 336.908 138.842 C 336.926 138.453 336.94 138.028 336.949 137.568 C 338.223 137.577 339.707 137.582 341.401 137.582 L 343.063 137.575 L 344.679 137.575 L 345.552 137.568 L 345.512 138.207 C 345.495 138.551 345.482 138.834 345.475 139.058 C 345.468 139.281 345.466 139.451 345.466 139.565 C 344.506 139.52 343.715 139.498 343.093 139.498 L 342.622 139.498 C 342.553 140.269 342.503 140.981 342.466 141.636 C 342.415 142.574 342.379 143.484 342.351 144.366 C 342.324 145.249 342.31 145.964 342.31 146.509 C 341.576 146.5 341.103 146.495 340.887 146.495 C 340.697 146.495 340.181 146.499 339.345 146.509 L 339.345 146.509 Z  M 344.837 146.509 L 345.395 145.566 L 348.869 139.185 L 349.238 138.473 C 349.346 138.263 349.495 137.961 349.688 137.568 C 350.477 137.577 351.054 137.582 351.416 137.582 C 352.047 137.582 352.633 137.578 353.172 137.568 L 354.152 140.3 L 356.151 145.553 L 356.541 146.509 C 355.765 146.5 355.295 146.496 355.129 146.496 C 354.753 146.496 354.198 146.5 353.468 146.509 C 353.27 145.787 352.986 144.938 352.612 143.962 L 349.227 143.962 C 348.839 144.733 348.438 145.582 348.022 146.509 C 347.187 146.5 346.675 146.496 346.487 146.496 C 346.145 146.496 345.597 146.5 344.837 146.509 Z  M 350.039 142.059 L 352.128 142.059 C 351.607 140.519 351.322 139.67 351.272 139.514 C 350.978 140.155 350.728 140.68 350.521 141.091 L 350.039 142.059 Z  M 357.188 146.509 C 357.298 145.479 357.378 144.637 357.427 143.987 C 357.521 142.801 357.59 141.618 357.637 140.448 C 357.684 139.275 357.706 138.314 357.706 137.568 C 358.317 137.577 358.856 137.582 359.326 137.582 C 359.646 137.582 360.102 137.578 360.699 137.568 L 360.538 139.943 L 360.334 143.654 L 360.309 144.565 C 361.08 144.579 361.585 144.585 361.817 144.585 C 362.998 144.585 363.893 144.57 364.499 144.539 L 364.348 146.509 C 363.168 146.5 362.046 146.496 360.979 146.496 C 359.535 146.496 358.273 146.5 357.188 146.509 L 357.188 146.509 Z " fill-rule="evenodd" fill="rgb(255,255,255)"/></g></svg>