<?xml version="1.0" encoding="UTF-8" standalone="no"?>
<svg
   xmlns:dc="http://purl.org/dc/elements/1.1/"
   xmlns:cc="http://creativecommons.org/ns#"
   xmlns:rdf="http://www.w3.org/1999/02/22-rdf-syntax-ns#"
   xmlns:svg="http://www.w3.org/2000/svg"
   xmlns="http://www.w3.org/2000/svg"
   xmlns:sodipodi="http://sodipodi.sourceforge.net/DTD/sodipodi-0.dtd"
   xmlns:inkscape="http://www.inkscape.org/namespaces/inkscape"
   version="1.1"
   width="396.8504"
   height="198.4252"
   id="svg2"
   inkscape:version="0.91 r13725"
   viewBox="0 0 396.8504 198.4252"
   sodipodi:docname="Logo plasma 12 08 18_I_convertido em corva.svg">
  <title
     id="title4188">Logo Plasmavideo</title>
  <metadata
     id="metadata41">
    <rdf:RDF>
      <cc:Work
         rdf:about="">
        <dc:format>image/svg+xml</dc:format>
        <dc:type
           rdf:resource="http://purl.org/dc/dcmitype/StillImage" />
        <dc:title>Logo Plasmavideo</dc:title>
        <dc:date>21/08/2018</dc:date>
        <dc:creator>
          <cc:Agent>
            <dc:title>Reinaldo Inacio</dc:title>
          </cc:Agent>
        </dc:creator>
      </cc:Work>
    </rdf:RDF>
  </metadata>
  <defs
     id="defs39" />
  <sodipodi:namedview
     pagecolor="#ffffff"
     bordercolor="#666666"
     borderopacity="1"
     objecttolerance="10"
     gridtolerance="10"
     guidetolerance="10"
     inkscape:pageopacity="0"
     inkscape:pageshadow="2"
     inkscape:window-width="1366"
     inkscape:window-height="709"
     id="namedview37"
     showgrid="false"
     inkscape:zoom="1.9726419"
     inkscape:cx="235.68488"
     inkscape:cy="99.212601"
     inkscape:window-x="0"
     inkscape:window-y="33"
     inkscape:window-maximized="1"
     inkscape:current-layer="svg2" />
  <g
     id="g4169"
     inkscape:export-xdpi="36.27042"
     inkscape:export-ydpi="36.27042">
    <path
       inkscape:connector-curvature="0"
       id="path4"
       style="fill:#00622a;fill-rule:evenodd"
       d="m 234.571,54.7297 c -9.6085,-16.8906 -30.5881,-23.0798 -46.8593,-13.8238 -4.0803,2.3211 -7.4766,5.3935 -10.1245,8.96 1.5789,-1.3576 3.3063,-2.5833 5.1798,-3.649 16.2712,-9.256 37.2509,-3.0669 46.8593,13.8238 7.1989,12.655 5.9717,27.7267 -1.9394,38.383 12.1341,-10.4327 15.3862,-28.7481 6.8841,-43.694 z" />
    <path
       inkscape:connector-curvature="0"
       id="path6"
       style="fill:#00622a;fill-rule:evenodd"
       d="m 189.5198,81.0121 c 5.1036,8.9832 16.2561,12.28 24.9098,7.3637 2.1701,-1.2329 3.9767,-2.8653 5.3856,-4.7608 -0.8399,0.7213 -1.7586,1.3725 -2.7551,1.9386 -8.6537,4.9163 -19.8062,1.6195 -24.9097,-7.3637 -3.8237,-6.7305 -3.1668,-14.7434 1.0425,-20.4067 -6.4545,5.5432 -8.189,15.2801 -3.6731,23.2289 z" />
    <path
       inkscape:connector-curvature="0"
       id="path8"
       style="fill:#00622a;fill-rule:evenodd"
       d="M 250.6301,42.6709 C 237.1213,18.952 207.6254,10.2608 184.7493,23.2586 c -5.7366,3.2594 -10.5116,7.5738 -14.2344,12.5822 2.2199,-1.9064 4.6485,-3.6276 7.2825,-5.1242 22.8761,-12.9979 52.3721,-4.3067 65.8808,19.4122 10.1212,17.771 8.3958,38.9356 -2.7267,53.8997 17.0598,-14.6501 21.6319,-40.3698 9.6786,-61.3576 z" />
    <path
       inkscape:connector-curvature="0"
       id="path10"
       style="fill:#00622a;fill-rule:evenodd"
       d="m 203.4196,65.7486 a 7.0923,7.0923 0 0 1 7.0924,7.0923 7.0923,7.0923 0 1 1 -7.0924,-7.0923 z" />
    <g
       id="Layer1000">
      <path
         inkscape:connector-curvature="0"
         id="path13"
         style="fill:#00622a;fill-rule:evenodd"
         d="m 24.9437,139.3064 0.5726,-7.2862 0.7566,-14.2231 0.3107,-10.061 c 0.0193,-1.0865 0.0289,-2.1637 0.0289,-3.2502 0,-0.815 -0.0096,-2.1441 -0.0289,-4.0068 2.503,0.0581 4.5113,0.0873 6.0247,0.0873 1.4554,0 3.4541,-0.0487 5.9863,-0.1261 2.5418,-0.0873 4.6859,-0.1361 6.4519,-0.1361 2.5322,0 4.4144,0.165 5.627,0.4853 1.2226,0.32 2.3284,0.8342 3.3084,1.5231 0.9895,0.6987 1.8045,1.5037 2.4448,2.4352 0.6404,0.9315 1.1257,1.9891 1.4457,3.1725 0.3203,1.1838 0.485,2.3965 0.485,3.6287 0,2.5418 -0.6111,4.8705 -1.8434,6.9758 -1.2319,2.1052 -2.959,3.6771 -5.1905,4.7247 -2.2314,1.0381 -4.7443,1.5622 -7.5189,1.5622 -1.0284,0 -2.2121,-0.1165 -3.5509,-0.3495 -0.1457,-0.8634 -0.4366,-2.1538 -0.8442,-3.871 -0.4172,-1.7172 -0.7568,-2.9883 -1.0188,-3.8129 0.8346,0.1554 1.698,0.233 2.6003,0.233 1.9114,0 3.3278,-0.4657 4.2689,-1.3875 0.9312,-0.9216 1.397,-2.0472 1.397,-3.3764 0,-0.65 -0.1066,-1.2223 -0.3104,-1.7268 -0.2135,-0.5046 -0.5434,-0.9119 -0.9993,-1.2419 -0.4464,-0.32 -0.951,-0.5238 -1.5037,-0.6211 -0.5434,-0.0969 -1.1741,-0.1454 -1.8726,-0.1454 -0.6792,0 -1.3876,0.0196 -2.1249,0.0581 l -2.3867,0.165 c -0.2424,3.6578 -0.4266,7.7326 -0.5627,12.2051 -0.2327,8.1496 -0.3589,13.0397 -0.3589,14.6696 l 0,3.6964 -5.6659,-0.0581 c -0.7956,0 -2.7748,0.0193 -5.9281,0.0581 z" />
      <path
         inkscape:connector-curvature="0"
         id="path15"
         style="fill:#00622a;fill-rule:evenodd"
         d="m 61.5694,139.3064 0.5045,-6.122 1.0962,-21.2666 0.3107,-11.4387 c 2.6291,0.0386 4.6082,0.0581 5.9374,0.0581 1.7272,0 3.6286,-0.0195 5.7147,-0.0581 l -0.6404,8.7316 -1.038,21.5096 -0.2234,8.5861 c -2.0373,-0.0193 -3.8614,-0.0292 -5.4913,-0.0292 l -6.1704,0.0292 z" />
      <path
         inkscape:connector-curvature="0"
         id="path17"
         style="fill:#00622a;fill-rule:evenodd"
         d="m 82.3221,118.5248 c 0.3588,-1.863 0.5822,-3.1437 0.6792,-3.8518 0.0969,-0.6984 0.2522,-1.8045 0.4558,-3.3083 5.4527,-1.203 10.1386,-1.8045 14.0485,-1.8045 2.2317,0 4.2786,0.252 6.1319,0.7566 1.853,0.4949 3.2987,1.3098 4.3367,2.4256 1.0381,1.1157 1.5619,2.7164 1.5619,4.8024 0,1.0576 -0.1454,3.4441 -0.4269,7.1601 -0.2812,3.7062 -0.4946,8.5765 -0.6403,14.6015 -1.8627,-0.0388 -3.7157,-0.0581 -5.5494,-0.0581 -1.7853,0 -3.6868,0.0193 -5.6951,0.0581 0.2619,-2.086 0.5434,-6.3935 0.8634,-12.9232 -0.718,0.3493 -1.2807,0.6016 -1.688,0.7473 -0.4076,0.155 -1.1157,0.388 -2.1345,0.6984 -1.0284,0.3104 -1.8241,0.5627 -2.3964,0.7761 -0.5726,0.2135 -1.0769,0.485 -1.5038,0.815 -0.4269,0.3203 -0.7277,0.6599 -0.9023,1.0091 -0.1845,0.3396 -0.2718,0.7277 -0.2718,1.1546 0,0.65 0.2619,1.2126 0.7761,1.6784 0.5142,0.4561 1.3292,0.6888 2.4548,0.6888 0.3977,0 0.8246,-0.0292 1.2904,-0.0969 0.456,-0.0681 1.0865,-0.2234 1.8822,-0.4853 -0.5531,1.436 -1.213,3.5316 -1.9792,6.2869 -1.6299,0.2716 -3.1725,0.4076 -4.6278,0.4076 -2.348,0 -4.3078,-0.3299 -5.8697,-0.9799 -1.5622,-0.6599 -2.7652,-1.7172 -3.6094,-3.1725 -0.8439,-1.465 -1.2611,-2.9203 -1.2611,-4.3855 0,-0.8924 0.155,-1.7657 0.4657,-2.6195 0.3104,-0.8538 0.7954,-1.688 1.465,-2.503 0.6596,-0.815 1.4357,-1.5137 2.3187,-2.086 0.8926,-0.5822 2.1053,-1.1254 3.6383,-1.6396 1.5426,-0.5142 3.4928,-0.9895 5.86,-1.4456 0.98,-0.1939 1.8822,-0.3977 2.7068,-0.6112 0.815,-0.2231 1.4069,-0.4076 1.7561,-0.5726 0.3492,-0.1647 0.6307,-0.3492 0.8441,-0.5627 0.2231,-0.2231 0.3782,-0.4461 0.4658,-0.6791 0.0969,-0.2424 0.1454,-0.4851 0.1454,-0.747 0,-0.7276 -0.3008,-1.2903 -0.9023,-1.6784 -0.6015,-0.398 -1.4941,-0.5918 -2.6583,-0.5918 -3.2502,0 -7.2573,0.9119 -12.0305,2.736 z" />
      <path
         inkscape:connector-curvature="0"
         id="path19"
         style="fill:#00622a;fill-rule:evenodd"
         d="m 114.6589,138.7826 c -0.0777,-0.8346 -0.1455,-1.7173 -0.2231,-2.6391 -0.0777,-0.9215 -0.1942,-2.1926 -0.3688,-3.8032 l -0.2231,-2.0569 c 1.8337,0.7277 3.4053,1.2711 4.7248,1.6203 1.3195,0.3592 2.5421,0.5338 3.6479,0.5338 0.9315,0 1.6787,-0.0873 2.251,-0.2523 0.5822,-0.1746 0.9992,-0.4173 1.2611,-0.7373 0.2622,-0.3203 0.398,-0.6503 0.398,-0.9899 0,-0.3103 -0.0972,-0.6015 -0.3007,-0.9022 -0.1942,-0.2909 -0.6404,-0.6888 -1.3391,-1.203 -1.5426,-1.135 -2.9007,-2.1731 -4.0748,-3.1045 -1.1739,-0.9219 -2.0569,-1.7465 -2.6487,-2.4741 -0.5916,-0.718 -1.0477,-1.4942 -1.3581,-2.3284 -0.3104,-0.8345 -0.4657,-1.698 -0.4657,-2.5809 0,-1.5812 0.4461,-3.0464 1.3484,-4.4144 0.8926,-1.3581 2.2218,-2.3477 3.9682,-2.9688 1.7464,-0.6111 3.8809,-0.9215 6.3936,-0.9215 2.6294,0 5.9765,0.3492 10.061,1.0477 l 0.4657,7.9169 c -2.2799,-0.8927 -4.4725,-1.3388 -6.5877,-1.3388 -1.4842,0 -2.571,0.155 -3.2403,0.4558 -0.6695,0.3104 -0.9995,0.7761 -0.9995,1.4164 0,0.2038 0.0388,0.4077 0.1165,0.5919 0.068,0.1942 0.2135,0.3881 0.4074,0.6015 0.1941,0.2038 0.4464,0.4173 0.7375,0.6404 0.2911,0.2134 0.9992,0.718 2.1345,1.5134 1.135,0.7957 2.018,1.4553 2.6583,1.9695 1.0574,0.8345 1.8627,1.601 2.4254,2.3091 0.553,0.718 0.9799,1.4749 1.271,2.2802 0.2911,0.805 0.4366,1.6492 0.4366,2.5418 0,1.3485 -0.33,2.5807 -0.98,3.706 -0.65,1.1353 -1.6395,2.0764 -2.9591,2.8333 -1.3096,0.7565 -2.736,1.2804 -4.2786,1.5811 -1.533,0.2911 -3.1141,0.4368 -4.7443,0.4368 -1.0962,0 -2.4738,-0.0972 -4.1329,-0.2814 -1.6592,-0.1939 -3.5802,-0.5239 -5.7824,-0.9992 z" />
      <path
         inkscape:connector-curvature="0"
         id="path21"
         style="fill:#00622a;fill-rule:evenodd"
         d="m 143.0569,139.3064 0.815,-13.7089 0.4657,-10.7306 0.0581,-4.6083 c 2.086,0.0389 3.9198,0.0582 5.5109,0.0582 1.8045,0 3.5509,-0.0193 5.2582,-0.0582 l -0.2035,3.8226 c 0.5819,-0.7569 1.0865,-1.3485 1.4941,-1.7465 0.3977,-0.4073 0.9023,-0.7954 1.4843,-1.1738 0.5918,-0.3688 1.1933,-0.6596 1.824,-0.8731 0.6208,-0.2233 1.3292,-0.3979 2.1053,-0.5337 0.7762,-0.1262 1.5911,-0.1939 2.4353,-0.1939 0.97,0 1.8626,0.0774 2.6776,0.2424 0.815,0.1553 1.5137,0.3591 2.1053,0.6111 0.5822,0.2426 1.0964,0.5241 1.533,0.8538 0.4365,0.3203 0.8149,0.6792 1.1449,1.0868 0.3396,0.4073 0.718,0.9992 1.1545,1.7753 0.8343,-1.203 1.7076,-2.1245 2.6391,-2.7552 0.9215,-0.6211 1.9791,-1.0769 3.1626,-1.3777 1.1837,-0.2911 2.3964,-0.4365 3.6482,-0.4365 1.6395,0 3.1918,0.2327 4.6471,0.7081 1.4553,0.4754 2.6583,1.2903 3.5898,2.4644 0.9411,1.1642 1.4068,2.668 1.4068,4.5306 0,0.8638 -0.0584,2.183 -0.1845,3.949 -0.1162,1.756 -0.2812,4.7829 -0.4947,9.0711 -0.2134,4.2883 -0.3299,7.2961 -0.3492,9.023 -1.7464,-0.0388 -3.4344,-0.0581 -5.0646,-0.0581 -1.9888,0 -4.0649,0.0193 -6.2479,0.0581 0.1843,-2.4061 0.3685,-5.4235 0.5531,-9.0519 0.1938,-3.6286 0.2812,-6.1415 0.2812,-7.5384 0,-1.2226 -0.1358,-2.1442 -0.4173,-2.7457 -0.2812,-0.6015 -0.6404,-1.0091 -1.0769,-1.2322 -0.4365,-0.2231 -0.9215,-0.3299 -1.4457,-0.3299 -0.5527,0 -1.038,0.1068 -1.4553,0.3103 -0.4461,0.2331 -0.8342,0.5823 -1.1738,1.0577 -0.4462,0.6307 -0.815,1.4261 -1.0865,2.3771 -0.233,0.7469 -0.4076,1.8723 -0.5338,3.4052 -0.1358,1.5523 -0.2423,3.5995 -0.32,6.1317 l -0.233,7.6161 c -2.0373,-0.0388 -3.8806,-0.0581 -5.5106,-0.0581 -1.6784,0 -3.6479,0.0193 -5.9181,0.0581 0.1746,-1.688 0.3685,-4.5213 0.5915,-8.4988 0.2331,-3.9779 0.3396,-6.6362 0.3396,-7.9753 0,-1.135 -0.1065,-1.9888 -0.3396,-2.5515 -0.223,-0.5726 -0.5431,-1.0188 -0.9603,-1.3583 -0.4077,-0.3396 -0.9508,-0.5142 -1.6396,-0.5142 -0.7376,0 -1.3875,0.2134 -1.9406,0.6499 -0.553,0.4366 -1.0284,1.0576 -1.4165,1.8726 -0.388,0.815 -0.6692,1.9403 -0.8246,3.3667 -0.1649,1.4261 -0.3104,3.6091 -0.4269,6.539 -0.1261,2.9398 -0.2038,5.7631 -0.2426,8.4699 -2.2895,-0.0388 -4.1426,-0.0581 -5.5689,-0.0581 -1.5716,0 -3.5218,0.0193 -5.8502,0.0581 z" />
      <path
         inkscape:connector-curvature="0"
         id="path23"
         style="fill:#00622a;fill-rule:evenodd"
         d="m 199.9403,118.5248 c 0.3589,-1.863 0.5823,-3.1437 0.6792,-3.8518 0.0969,-0.6984 0.2523,-1.8045 0.4558,-3.3083 5.4527,-1.203 10.1387,-1.8045 14.0485,-1.8045 2.2317,0 4.2786,0.252 6.1319,0.7566 1.853,0.4949 3.2987,1.3098 4.3367,2.4256 1.0381,1.1157 1.5619,2.7164 1.5619,4.8024 0,1.0576 -0.1454,3.4441 -0.4269,7.1601 -0.2812,3.7062 -0.4946,8.5765 -0.6403,14.6015 -1.8627,-0.0388 -3.7157,-0.0581 -5.5494,-0.0581 -1.7853,0 -3.6867,0.0193 -5.6951,0.0581 0.2619,-2.086 0.5434,-6.3935 0.8634,-12.9232 -0.718,0.3493 -1.2806,0.6016 -1.688,0.7473 -0.4076,0.155 -1.1157,0.388 -2.1345,0.6984 -1.0284,0.3104 -1.8241,0.5627 -2.3964,0.7761 -0.5726,0.2135 -1.0769,0.485 -1.5038,0.815 -0.4269,0.3203 -0.7276,0.6599 -0.9022,1.0091 -0.1846,0.3396 -0.2719,0.7277 -0.2719,1.1546 0,0.65 0.2619,1.2126 0.7762,1.6784 0.5142,0.4561 1.3291,0.6888 2.4548,0.6888 0.3977,0 0.8246,-0.0292 1.2903,-0.0969 0.4561,-0.0681 1.0865,-0.2234 1.8822,-0.4853 -0.553,1.436 -1.213,3.5316 -1.9792,6.2869 -1.6299,0.2716 -3.1725,0.4076 -4.6278,0.4076 -2.3479,0 -4.3078,-0.3299 -5.8697,-0.9799 -1.5622,-0.6599 -2.7652,-1.7172 -3.6094,-3.1725 -0.8438,-1.465 -1.2611,-2.9203 -1.2611,-4.3855 0,-0.8924 0.1551,-1.7657 0.4657,-2.6195 0.3104,-0.8538 0.7954,-1.688 1.465,-2.503 0.6596,-0.815 1.4357,-1.5137 2.3187,-2.086 0.8927,-0.5822 2.1053,-1.1254 3.6383,-1.6396 1.5426,-0.5142 3.4928,-0.9895 5.8601,-1.4456 0.9799,-0.1939 1.8822,-0.3977 2.7068,-0.6112 0.8149,-0.2231 1.4068,-0.4076 1.756,-0.5726 0.3493,-0.1647 0.6307,-0.3492 0.8442,-0.5627 0.2231,-0.2231 0.3781,-0.4461 0.4657,-0.6791 0.097,-0.2424 0.1454,-0.4851 0.1454,-0.747 0,-0.7276 -0.3007,-1.2903 -0.9022,-1.6784 -0.6015,-0.398 -1.4942,-0.5918 -2.6584,-0.5918 -3.2502,0 -7.2572,0.9119 -12.0305,2.736 z" />
      <path
         inkscape:connector-curvature="0"
         id="path25"
         style="fill:#00622a;fill-rule:evenodd"
         d="m 240.33,139.3064 -3.0075,-9.3334 -6.7915,-19.7144 c 2.1636,0.0389 4.1621,0.0582 6.025,0.0582 1.9307,0 3.7449,-0.0193 5.4524,-0.0582 0.3204,1.3097 0.9508,3.5995 1.9018,6.869 0.9507,3.2697 1.9888,7.1699 3.1241,11.6813 l 0.7373,-2.3576 c 0.1162,-0.2911 0.5626,-1.5038 1.3388,-3.6479 l 4.5212,-12.5448 c 2.0469,0.0389 3.9776,0.0582 5.7921,0.0582 1.8822,0 3.8321,-0.0193 5.86,-0.0582 l -3.9197,8.4504 -7.3058,16.7845 -1.5619,3.8129 c -2.241,-0.0388 -4.2105,-0.0581 -5.9181,-0.0581 -1.853,0 -3.9391,0.0193 -6.2482,0.0581 z" />
      <path
         inkscape:connector-curvature="0"
         id="path27"
         style="fill:#00622a;fill-rule:evenodd"
         d="m 316.9959,139.3064 c -2.0276,-0.0388 -3.716,-0.0581 -5.0644,-0.0581 -1.5233,0 -3.3667,0.0193 -5.5301,0.0581 l 0.1647,-3.5898 c -0.7373,0.718 -1.3873,1.3003 -1.9307,1.7464 -0.553,0.4462 -1.2611,0.8731 -2.1246,1.2904 -0.8634,0.4172 -1.7852,0.7372 -2.7844,0.9703 -0.9896,0.223 -2.018,0.3395 -3.0853,0.3395 -1.8144,0 -3.522,-0.3299 -5.1032,-0.9995 -1.5814,-0.6596 -2.9302,-1.6007 -4.0459,-2.8233 -1.1157,-1.2223 -1.9499,-2.6776 -2.503,-4.3463 -0.553,-1.6784 -0.8248,-3.4248 -0.8248,-5.2197 0,-2.5614 0.5045,-5.0644 1.5137,-7.5093 0.9992,-2.4449 2.3187,-4.3659 3.939,-5.7631 1.6299,-1.4069 3.4636,-2.3964 5.5009,-2.9784 2.0375,-0.5726 4.2494,-0.8634 6.6265,-0.8634 1.5719,0 3.4152,0.1358 5.5205,0.4073 0.1454,-2.2606 0.2327,-5.4235 0.2812,-9.4884 2.3287,0.0386 4.2302,0.0581 5.7047,0.0581 1.9114,0 3.8325,-0.0195 5.7824,-0.0581 -0.5334,5.6271 -1.0088,12.5059 -1.4164,20.6263 -0.4074,8.1108 -0.6208,14.1843 -0.6208,18.201 z m -10.1191,-21.9458 c -1.0092,-0.233 -1.9599,-0.3493 -2.8525,-0.3493 -1.8531,0 -3.4249,0.3589 -4.7152,1.067 -1.2903,0.7084 -2.2895,1.8145 -2.9883,3.3279 -0.6888,1.5038 -1.038,2.9883 -1.038,4.4436 0,1.106 0.1941,2.0956 0.5822,2.9687 0.3977,0.883 0.9896,1.5814 1.8045,2.0956 0.8051,0.5142 1.7076,0.7665 2.6972,0.7665 1.0477,0 1.9984,-0.2911 2.8718,-0.883 0.8634,-0.5819 1.5619,-1.4453 2.1053,-2.5806 0.5434,-1.135 0.9215,-2.4934 1.1157,-4.0556 0.2038,-1.5618 0.3396,-3.8321 0.4173,-6.8008 z" />
      <path
         inkscape:connector-curvature="0"
         id="path29"
         style="fill:#00622a;fill-rule:evenodd"
         d="m 351.5545,130.7492 c -0.2424,1.1352 -0.7081,3.8712 -1.397,8.208 -2.2025,0.4461 -4.0555,0.7373 -5.5593,0.8827 -1.5037,0.1457 -3.0174,0.2233 -4.5601,0.2233 -2.2603,0 -4.3463,-0.1553 -6.2382,-0.4657 -1.9017,-0.3104 -3.5413,-0.8733 -4.9189,-1.6687 -1.3777,-0.7861 -2.5322,-1.7757 -3.4637,-2.9591 -0.9314,-1.1838 -1.6395,-2.5906 -2.1248,-4.2205 -0.485,-1.63 -0.7277,-3.3083 -0.7277,-5.0256 0,-2.4256 0.4853,-4.8024 1.4553,-7.1212 0.9607,-2.3187 2.2122,-4.1332 3.7355,-5.4331 1.5327,-1.3099 3.2888,-2.2414 5.2778,-2.7845 1.9888,-0.5531 4.036,-0.8246 6.122,-0.8246 2.1538,0 4.2203,0.252 6.1801,0.7566 1.9695,0.4949 3.6287,1.3776 4.9967,2.6195 1.368,1.2517 2.338,2.6583 2.9202,4.2301 0.5723,1.5718 0.8634,3.2695 0.8634,5.0839 0,1.0866 -0.1165,2.2799 -0.3492,3.6091 l -19.9959,0.0292 c -0.0192,0.3008 -0.0292,0.5723 -0.0292,0.8246 0,2.0375 0.7376,3.5413 2.2026,4.5113 1.4649,0.9607 3.2502,1.4457 5.3651,1.4457 1.2515,0 2.6875,-0.1454 4.2979,-0.4365 1.601,-0.2911 3.5898,-0.7858 5.9474,-1.4845 z m -17.5607,-9.1973 9.4111,0 c 0.0192,-0.3203 0.0291,-0.5919 0.0291,-0.8249 0,-0.9799 -0.1746,-1.8238 -0.5241,-2.5226 -0.3588,-0.6984 -0.8634,-1.203 -1.5134,-1.523 -0.6596,-0.3203 -1.3972,-0.4853 -2.2122,-0.4853 -0.5723,0 -1.1157,0.0876 -1.6492,0.2718 -0.5337,0.1747 -1.0187,0.4462 -1.4456,0.7954 -0.4269,0.3496 -0.7858,0.7473 -1.0673,1.2031 -0.2812,0.4464 -0.4946,0.8926 -0.6304,1.3099 -0.1261,0.4268 -0.2622,1.0187 -0.398,1.7756 z" />
      <path
         inkscape:connector-curvature="0"
         id="path31"
         style="fill:#00622a;fill-rule:evenodd"
         d="m 374.7427,109.5602 c 2.3576,0 4.6182,0.3589 6.7915,1.0769 2.1734,0.7276 4.0068,1.756 5.5009,3.1141 1.5038,1.3584 2.6099,2.9398 3.3183,4.754 0.7081,1.8048 1.0672,3.7548 1.0672,5.8408 0,2.0276 -0.3203,3.9486 -0.951,5.7824 -0.6403,1.8238 -1.7172,3.541 -3.2306,5.142 -1.5234,1.6007 -3.4541,2.8038 -5.7921,3.5995 -2.3383,0.7954 -4.822,1.1933 -7.4415,1.1933 -2.406,0 -4.7248,-0.3492 -6.9466,-1.0479 -2.2121,-0.7081 -4.0748,-1.7269 -5.5593,-3.0756 -1.4941,-1.3485 -2.6098,-2.9591 -3.3568,-4.8314 -0.7472,-1.8726 -1.1256,-3.8517 -1.1256,-5.9085 0,-2.0668 0.3688,-4.0459 1.0964,-5.9182 0.7277,-1.8726 1.8822,-3.5609 3.4733,-5.055 1.5815,-1.5038 3.5414,-2.6484 5.8697,-3.4537 2.3383,-0.8054 4.7637,-1.2127 7.2862,-1.2127 z m -0.1939,8.3823 c -1.2129,0 -2.2994,0.3104 -3.2502,0.9315 -0.9411,0.6307 -1.6591,1.5426 -2.1441,2.736 -0.4853,1.203 -0.7277,2.5129 -0.7277,3.9294 0,2.0761 0.5239,3.6672 1.5619,4.7732 1.048,1.1061 2.3576,1.6591 3.9294,1.6591 1.1934,0 2.2703,-0.3203 3.221,-0.9507 0.9411,-0.6307 1.6591,-1.5718 2.1441,-2.804 0.4853,-1.2419 0.7277,-2.5614 0.7277,-3.9875 0,-1.1642 -0.1939,-2.2218 -0.5723,-3.1726 -0.3784,-0.9411 -0.9992,-1.6979 -1.8629,-2.2606 -0.8635,-0.5723 -1.8723,-0.8538 -3.0269,-0.8538 z" />
      <path
         inkscape:connector-curvature="0"
         id="path33"
         style="fill:#00622a;fill-rule:evenodd"
         d="m 268.0094,110.3796 11.7492,-0.1767 -0.8831,29.1037 -12.1915,0 1.3254,-28.927 z" />
    </g>
    <path
       inkscape:connector-curvature="0"
       id="path35"
       style="fill:#e30016;fill-rule:evenodd"
       d="m 237.1822,163.5987 c -0.0573,-0.9272 -0.1265,-1.6687 -0.2021,-2.2252 0.5048,0.2169 0.9572,0.3666 1.3518,0.4491 0.3946,0.085 0.7413,0.1275 1.0372,0.1275 0.3946,0 0.7067,-0.0558 0.9386,-0.1678 0.2318,-0.1117 0.3489,-0.2747 0.3489,-0.4935 0,-0.0737 -0.0113,-0.1454 -0.0343,-0.2123 -0.0232,-0.0692 -0.0646,-0.1452 -0.1284,-0.2302 -0.0644,-0.0848 -0.1539,-0.1766 -0.271,-0.2769 l -1.2759,-1.0747 c -0.2985,-0.2435 -0.5071,-0.4201 -0.6242,-0.5295 -0.2389,-0.2233 -0.4269,-0.4311 -0.5601,-0.6233 -0.1329,-0.1922 -0.2293,-0.3867 -0.2914,-0.5854 -0.0621,-0.1987 -0.0918,-0.4087 -0.0918,-0.6321 0,-0.2659 0.0482,-0.5275 0.1445,-0.7821 0.0964,-0.2545 0.2413,-0.4938 0.436,-0.7171 0.193,-0.2211 0.4476,-0.4133 0.769,-0.5743 0.3187,-0.163 0.6585,-0.2724 1.0233,-0.3306 0.3649,-0.0603 0.739,-0.0892 1.1271,-0.0892 0.7594,0 1.5857,0.0847 2.4806,0.2545 0.0113,0.3016 0.0275,0.5766 0.0459,0.8266 0.0182,0.2503 0.0618,0.6905 0.1287,1.3181 -0.4155,-0.1607 -0.7943,-0.2724 -1.1387,-0.3351 -0.3418,-0.0623 -0.6378,-0.0938 -0.8858,-0.0938 -0.3509,0 -0.6449,0.0627 -0.8765,0.1899 -0.2318,0.1273 -0.3489,0.2838 -0.3489,0.4714 0,0.0873 0.0187,0.1721 0.0553,0.2549 0.0343,0.0825 0.1031,0.1808 0.2018,0.2925 0.0986,0.1094 0.2293,0.2325 0.3926,0.3665 0.163,0.1318 0.4175,0.3305 0.7662,0.5919 l 0.4867,0.3733 c 0.1446,0.1137 0.3008,0.25 0.468,0.4111 0.1656,0.1629 0.3098,0.3217 0.4317,0.4779 0.1236,0.1587 0.2157,0.3016 0.2821,0.4334 0.0643,0.1295 0.1148,0.2616 0.1448,0.3954 0.0321,0.1341 0.0479,0.2773 0.0479,0.4292 0,0.3932 -0.0964,0.7662 -0.2891,1.1214 -0.1928,0.3574 -0.4683,0.6502 -0.8215,0.8781 -0.3557,0.2299 -0.7458,0.3887 -1.1704,0.4802 -0.4246,0.0916 -0.8719,0.1386 -1.3425,0.1386 -0.7274,0 -1.6478,-0.1028 -2.7561,-0.3084 z m 7.6833,0.1341 c 0.1122,-1.1259 0.1927,-2.0687 0.2455,-2.8307 0.0507,-0.7596 0.1031,-1.7693 0.1536,-3.0293 0.053,-1.2578 0.078,-2.0934 0.078,-2.5045 l -0.007,-0.5765 c 1.0579,0.009 2.3383,0.0136 3.839,0.0136 1.3841,0 2.605,-0.004 3.6629,-0.0136 l -0.0139,0.2168 c -0.005,0.0513 -0.0158,0.2413 -0.032,0.5698 l -0.0414,0.7126 c -0.009,0.152 -0.0139,0.3059 -0.0139,0.4646 -0.8626,-0.0357 -1.5879,-0.0536 -2.1753,-0.0536 -0.6449,0 -1.0808,0.002 -1.3059,0.005 -0.2271,0.002 -0.5783,0.011 -1.0579,0.0289 l -0.0779,1.5015 c 0.5297,0.0133 1.1452,0.0199 1.847,0.0199 0.2526,0 0.9204,-0.0156 2.0038,-0.0468 -0.0462,0.5584 -0.0873,1.2243 -0.1284,1.9973 -0.7758,-0.009 -1.3728,-0.0134 -1.7904,-0.0134 -0.6196,0 -1.3124,0.0134 -2.0792,0.0403 l -0.0847,1.5951 0.7733,0 c 0.2296,0 0.7024,-0.007 1.4184,-0.0202 l 1.393,-0.0334 c 0.2063,-0.005 0.5507,-0.0224 1.0349,-0.0536 -0.0527,0.6477 -0.0986,1.3181 -0.1355,2.0106 -1.0922,-0.009 -2.2901,-0.0133 -3.5938,-0.0133 l -2.9579,0.006 -0.9547,0.007 z m 14.4853,-5.201 c 0.6126,0.009 1.1979,0.0133 1.7532,0.0133 0.9477,0 1.6915,-0.004 2.2283,-0.0133 -0.0572,0.5964 -0.1148,1.4431 -0.1743,2.5356 -0.0575,1.0947 -0.0941,1.9193 -0.1077,2.4778 -0.5168,0.0915 -0.9437,0.1587 -1.2807,0.2009 -0.3399,0.0426 -0.7461,0.0783 -1.2209,0.1117 -0.4751,0.0338 -0.8997,0.0493 -1.2716,0.0493 -0.6103,0 -1.207,-0.047 -1.7946,-0.1431 -0.5874,-0.0961 -1.1129,-0.2523 -1.5786,-0.4646 -0.4638,-0.2146 -0.8493,-0.5048 -1.1591,-0.8714 -0.3098,-0.3662 -0.5482,-0.8019 -0.716,-1.3025 -0.1676,-0.5026 -0.2526,-1.021 -0.2526,-1.5593 0,-0.8847 0.2276,-1.7068 0.6795,-2.4665 0.4521,-0.7596 1.1038,-1.3606 1.9527,-1.8051 0.8493,-0.4424 1.9463,-0.6635 3.2913,-0.6635 0.982,0 2.0676,0.1162 3.2607,0.3483 0,0.6347 0.0278,1.3405 0.0828,2.1181 -0.3234,-0.1049 -0.5831,-0.1831 -0.7826,-0.239 -0.1996,-0.0538 -0.4337,-0.1051 -0.7002,-0.1496 -0.2659,-0.0471 -0.5207,-0.0806 -0.7594,-0.1007 -0.2409,-0.0224 -0.4544,-0.0334 -0.6426,-0.0334 -0.4935,0 -0.9593,0.0691 -1.3998,0.2055 -0.4382,0.1383 -0.8172,0.3484 -1.1313,0.6344 -0.3169,0.2837 -0.5533,0.6256 -0.7092,1.021 -0.1584,0.3977 -0.2364,0.8155 -0.2364,1.2555 0,0.447 0.0896,0.8467 0.2687,1.1976 0.1812,0.3507 0.4655,0.6166 0.8558,0.7997 0.3901,0.1834 0.8263,0.2749 1.3082,0.2749 0.3991,0 0.8376,-0.0581 1.3127,-0.1743 l 0.0686,-1.3941 c -0.2891,-0.009 -0.4612,-0.0133 -0.5139,-0.0133 l -0.7112,0.007 0.0456,-0.8064 c 0.005,-0.0871 0.0116,-0.2143 0.0207,-0.3776 0.009,-0.163 0.0139,-0.3886 0.0139,-0.6724 z m 5.7441,-3.74 c 0.6976,0.009 1.1909,0.0136 1.4777,0.0136 0.358,0 0.8354,-0.004 1.4321,-0.0136 l -0.2018,2.7859 c -0.0392,0.523 -0.0712,1.0145 -0.0896,1.4746 -0.0207,0.458 -0.0323,0.7752 -0.0323,0.9496 0,0.3327 0.0255,0.61 0.0757,0.8333 0.0484,0.2211 0.1377,0.4111 0.2684,0.5653 0.1312,0.1562 0.3121,0.2724 0.544,0.3506 0.2318,0.0783 0.4728,0.1185 0.7254,0.1185 0.2157,0 0.4175,-0.0292 0.6057,-0.085 0.1491,-0.0468 0.2801,-0.1117 0.3972,-0.1965 0.1031,-0.0782 0.195,-0.1675 0.2707,-0.2727 0.0941,-0.125 0.1766,-0.2814 0.25,-0.4691 0.0714,-0.1766 0.1241,-0.4042 0.1607,-0.686 0.0391,-0.2857 0.0941,-0.936 0.1585,-1.9502 0.0598,-0.8646 0.1031,-1.6555 0.1329,-2.3726 0.0275,-0.6971 0.0505,-1.0457 0.0734,-1.0457 0.6772,0 1.2121,0 1.6019,0 l 1.3654,0 -0.3214,4.6536 c -0.004,0.0873 -0.007,0.1588 -0.007,0.2146 -0.0185,0.9094 -0.0757,1.5506 -0.1721,1.9236 -0.0964,0.373 -0.2571,0.6993 -0.4819,0.974 -0.2251,0.2749 -0.551,0.523 -0.9825,0.7441 -0.4311,0.2188 -0.9201,0.3753 -1.4663,0.4668 -0.5485,0.0916 -1.1016,0.1386 -1.6637,0.1386 -0.5026,0 -0.987,-0.0357 -1.4528,-0.1051 -0.4314,-0.0692 -0.8194,-0.1721 -1.1658,-0.3039 -0.3442,-0.1338 -0.6449,-0.2903 -0.9017,-0.4691 -0.2319,-0.1653 -0.4111,-0.3351 -0.5372,-0.5071 -0.1261,-0.1744 -0.2248,-0.3799 -0.2959,-0.6211 -0.0805,-0.2702 -0.1217,-0.5607 -0.1217,-0.8714 0,-0.1049 0.005,-0.2613 0.0137,-0.4734 0.009,-0.2123 0.0275,-0.5184 0.0595,-0.9161 l 0.0876,-1.0477 c 0.0204,-0.275 0.0456,-0.6792 0.0708,-1.211 l 0.1219,-2.5894 z m 10.2946,8.941 c 0.087,-0.7685 0.1562,-1.4612 0.2067,-2.0755 0.0504,-0.6165 0.0938,-1.3314 0.1306,-2.1424 0.0389,-0.8133 0.0666,-1.6691 0.0851,-2.5716 0.0181,-0.9026 0.0275,-1.6197 0.0275,-2.1515 0.5601,0.0136 1.0119,0.0201 1.3563,0.0201 0.3578,0 0.796,-0.011 1.3102,-0.0289 0.5165,-0.0201 1.0165,-0.0315 1.5055,-0.0315 0.574,0 1.0831,0.0224 1.533,0.0672 0.335,0.0289 0.6403,0.0938 0.9159,0.1899 0.2752,0.0961 0.5071,0.2121 0.6953,0.3484 0.1879,0.1386 0.3464,0.2928 0.4705,0.4626 0.1259,0.1698 0.2223,0.3685 0.2934,0.5987 0.0689,0.2279 0.1035,0.4737 0.1035,0.735 0,0.2926 -0.0391,0.5675 -0.1148,0.8221 -0.0757,0.2548 -0.195,0.496 -0.3603,0.7194 -0.163,0.2256 -0.3693,0.4201 -0.6174,0.5831 -0.2503,0.1633 -0.5989,0.3308 -1.0462,0.5006 l 0.3489,0.8334 c 0.0984,0.2299 0.2041,0.4668 0.3163,0.7081 l 0.8998,1.9213 c 0.0413,0.0828 0.1125,0.2458 0.2157,0.4915 -0.7413,-0.009 -1.239,-0.0133 -1.4939,-0.0133 -0.324,0 -0.8515,0.004 -1.5882,0.0133 -0.0712,-0.2279 -0.2021,-0.6502 -0.3901,-1.2668 -0.0757,-0.2568 -0.14,-0.4581 -0.195,-0.5964 -0.1057,-0.3107 -0.2662,-0.7464 -0.4754,-1.307 l -0.6928,-1.8565 c 0.2433,0.0445 0.4794,0.0669 0.7135,0.0669 0.3263,0 0.6219,-0.0467 0.8884,-0.1428 0.2662,-0.0961 0.468,-0.2435 0.6058,-0.4448 0.1352,-0.1987 0.2043,-0.4087 0.2043,-0.6321 0,-0.1854 -0.0507,-0.3509 -0.1536,-0.4915 -0.1035,-0.1409 -0.2665,-0.2458 -0.4867,-0.315 -0.2228,-0.0694 -0.5647,-0.1051 -1.0259,-0.1051 -0.1559,0 -0.3191,0.002 -0.4864,0.009 -0.1675,0.007 -0.3625,0.0134 -0.5876,0.0179 -0.0598,0.8935 -0.11,1.986 -0.1562,3.2729 -0.0456,1.2869 -0.0757,2.5514 -0.0893,3.7913 -0.7483,-0.009 -1.2345,-0.0133 -1.4596,-0.0133 -0.2593,0 -0.7299,0.004 -1.4068,0.0133 z m 8.4501,0 0.5576,-0.9428 3.4744,-6.3808 0.3693,-0.7126 c 0.108,-0.21 0.2571,-0.5117 0.4499,-0.9048 0.7892,0.009 1.3655,0.0136 1.728,0.0136 0.631,0 1.2163,-0.004 1.7555,-0.0136 l 0.9802,2.7323 1.9987,5.2526 0.3901,0.9561 c -0.7759,-0.009 -1.2461,-0.0133 -1.4114,-0.0133 -0.3762,0 -0.9317,0.004 -1.6614,0.0133 -0.1976,-0.7217 -0.4819,-1.5707 -0.856,-2.5469 l -3.3849,0 c -0.3881,0.7707 -0.7894,1.6197 -1.205,2.5469 -0.8354,-0.009 -1.347,-0.0133 -1.535,-0.0133 -0.3421,0 -0.8903,0.004 -1.65,0.0133 z m 5.2024,-4.4504 2.0883,0 c -0.521,-1.5392 -0.8056,-2.3882 -0.8561,-2.5446 -0.2936,0.6412 -0.5436,1.1661 -0.7503,1.5772 l -0.4819,0.9674 z m 7.2173,4.4504 0.133,-1.3762 0.2619,-4.6627 0.0731,-1.8811 0,-1.021 c 0.6953,0.009 1.3105,0.0136 1.8431,0.0136 0.3807,0 0.9176,-0.004 1.6064,-0.0136 l 2.8893,5.087 0.3992,0.7464 c 0.0459,-0.7328 0.0915,-1.7629 0.14,-3.0875 0.0479,-1.3226 0.0711,-2.2388 0.0711,-2.7459 0.5531,0.009 0.9961,0.0136 1.3289,0.0136 0.1514,0 0.5919,-0.004 1.3193,-0.0136 l -0.1582,1.9528 -0.2985,5.4221 -0.0388,1.5661 c -0.5854,-0.009 -1.1294,-0.0133 -1.6385,-0.0133 -0.4226,0 -1.0051,0.004 -1.7512,0.0133 -0.2341,-0.4289 -0.4062,-0.7395 -0.5185,-0.9317 l -1.1293,-1.8678 c -0.3742,-0.612 -0.716,-1.1973 -1.0304,-1.7558 -0.2063,-0.3554 -0.4175,-0.7441 -0.6381,-1.1684 l -0.1377,3.1076 -0.0641,2.6161 c -0.5578,-0.009 -0.9822,-0.0133 -1.2739,-0.0133 -0.2477,0 -0.7089,0.004 -1.3881,0.0133 z m 19.2473,-2.1716 c -0.0528,0.2548 -0.1171,0.6123 -0.1928,1.0681 -0.0734,0.4578 -0.1242,0.813 -0.1514,1.0633 -0.9595,0.1431 -1.8175,0.2145 -2.5707,0.2145 -0.7274,0 -1.4043,-0.0895 -2.0285,-0.2658 -0.6264,-0.1766 -1.2002,-0.4669 -1.7235,-0.8691 -0.5232,-0.4045 -0.8974,-0.8802 -1.1199,-1.4253 -0.2248,-0.5454 -0.3373,-1.1551 -0.3373,-1.832 0,-0.7909 0.1516,-1.5015 0.4544,-2.1314 0.303,-0.6301 0.7389,-1.1574 1.3059,-1.5775 0.5689,-0.4221 1.1908,-0.7214 1.868,-0.9025 0.6769,-0.1809 1.3793,-0.2724 2.0999,-0.2724 0.6653,0 1.4871,0.0847 2.4644,0.2545 l 0.0139,0.5474 c 0.007,0.2392 0.0207,0.5006 0.0369,0.7886 l 0.0456,0.7418 c -0.5252,-0.1208 -0.9501,-0.201 -1.2758,-0.2435 -0.326,-0.0425 -0.6288,-0.0649 -0.9066,-0.0649 -0.6083,0 -1.1517,0.1185 -1.6384,0.3532 -0.4841,0.2367 -0.8677,0.5785 -1.1452,1.0275 -0.2778,0.4491 -0.4178,0.9474 -0.4178,1.4925 0,0.4961 0.1171,0.9227 0.3512,1.2801 0.2319,0.3552 0.5485,0.6302 0.9454,0.8243 0.3971,0.1945 0.8883,0.2906 1.4711,0.2906 0.3192,0 0.6656,-0.0247 1.0398,-0.0737 0.3761,-0.0491 0.8467,-0.1452 1.4114,-0.2883 z m -1.6526,2.7145 c -0.2384,0.4447 -0.4108,0.7752 -0.5185,0.9898 l -0.4175,0.8399 c -0.6611,-0.0133 -1.1061,-0.0201 -1.3403,-0.0201 -0.1193,0 -0.574,0.007 -1.3586,0.0201 0.6633,-0.8623 1.1268,-1.4834 1.3907,-1.8632 0.2959,0.0269 0.5142,0.0425 0.6585,0.0468 0.1423,0.005 0.3557,0.007 0.638,0.007 0.188,0 0.5049,-0.007 0.9477,-0.0201 z m 1.726,-0.5429 0.5575,-0.9428 3.4745,-6.3808 0.3693,-0.7126 c 0.108,-0.21 0.2571,-0.5117 0.4499,-0.9048 0.7891,0.009 1.3654,0.0136 1.728,0.0136 0.631,0 1.2163,-0.004 1.7555,-0.0136 l 0.9802,2.7323 1.9987,5.2526 0.3901,0.9561 c -0.7759,-0.009 -1.2462,-0.0133 -1.4114,-0.0133 -0.3762,0 -0.9318,0.004 -1.6614,0.0133 -0.1976,-0.7217 -0.4819,-1.5707 -0.8561,-2.5469 l -3.3848,0 c -0.3881,0.7707 -0.7895,1.6197 -1.205,2.5469 -0.8354,-0.009 -1.347,-0.0133 -1.535,-0.0133 -0.3421,0 -0.8906,0.004 -1.65,0.0133 z m 5.2024,-4.4504 2.0883,0 c -0.521,-1.5392 -0.8056,-2.3882 -0.8561,-2.5446 -0.2937,0.6412 -0.5437,1.1661 -0.7503,1.5772 l -0.4819,0.9674 z m 10.6733,4.4504 c 0.1009,-0.9964 0.1675,-1.7918 0.2044,-2.3904 0.055,-0.8915 0.1099,-2.0444 0.1649,-3.4586 0.0392,-1.0834 0.0599,-1.8587 0.0599,-2.3255 l 0,-0.7665 c 0.5232,0.0136 0.9754,0.0201 1.356,0.0201 0.3674,0 0.847,-0.011 1.4437,-0.0289 0.5945,-0.0201 1.1543,-0.0315 1.6776,-0.0315 0.5989,0 1.1245,0.0357 1.5766,0.1052 0.4518,0.0714 0.8722,0.2143 1.2643,0.4334 0.3903,0.2188 0.7183,0.5049 0.9824,0.8578 0.2639,0.3532 0.4661,0.7665 0.6035,1.2401 0.1398,0.4757 0.209,0.9627 0.209,1.4655 0,0.4938 -0.0531,0.9672 -0.1608,1.423 -0.1077,0.4581 -0.2571,0.8691 -0.4498,1.2357 -0.1928,0.3662 -0.4176,0.6814 -0.6747,0.9473 -0.2593,0.2636 -0.553,0.4893 -0.8835,0.6769 -0.2458,0.1406 -0.4958,0.25 -0.7458,0.3283 -0.2503,0.0782 -0.5922,0.1408 -1.0282,0.1899 -0.4818,0.0513 -1.0303,0.0782 -1.6432,0.0782 l -2.7147,-0.0201 c -0.2549,0 -0.6679,0.007 -1.2416,0.0201 z m 2.9052,-1.9703 c 0.2458,0.0178 0.5026,0.0266 0.7713,0.0266 0.4567,0 0.8652,-0.0402 1.2229,-0.1185 0.3583,-0.0779 0.6704,-0.2457 0.9411,-0.5026 0.2707,-0.2591 0.4725,-0.5899 0.6012,-0.9918 0.131,-0.4045 0.1953,-0.8178 0.1953,-1.2422 0,-0.5184 -0.0964,-0.9564 -0.2891,-1.3138 -0.1905,-0.3552 -0.4476,-0.6032 -0.7668,-0.7416 -0.3189,-0.1408 -0.7526,-0.21 -1.3034,-0.21 -0.3214,0 -0.6998,0.0133 -1.1383,0.0403 l -0.2342,5.0536 z m 7.7593,1.9703 c 0.2591,-3.5076 0.39,-6.2042 0.39,-8.0966 l -0.007,-0.8444 c 0.7847,0.009 1.3079,0.0136 1.5718,0.0136 0.1217,0 0.6038,-0.004 1.4457,-0.0136 -0.0825,0.983 -0.1465,1.9125 -0.1973,2.7904 -0.064,1.222 -0.11,2.3661 -0.1377,3.4294 -0.0273,1.0635 -0.0411,1.9706 -0.0411,2.7212 l -1.3746,-0.0133 c -0.2687,0 -0.8195,0.004 -1.65,0.0133 z m 10.0746,-5.201 c 0.6126,0.009 1.1979,0.0133 1.7532,0.0133 0.9477,0 1.6915,-0.004 2.2283,-0.0133 -0.0575,0.5964 -0.1148,1.4431 -0.1746,2.5356 -0.0572,1.0947 -0.0938,1.9193 -0.1077,2.4778 -0.5165,0.0915 -0.9434,0.1587 -1.2804,0.2009 -0.3399,0.0426 -0.7461,0.0783 -1.2209,0.1117 -0.4753,0.0338 -0.8997,0.0493 -1.2716,0.0493 -0.6103,0 -1.207,-0.047 -1.7946,-0.1431 -0.5876,-0.0961 -1.1132,-0.2523 -1.5786,-0.4646 -0.4638,-0.2146 -0.8493,-0.5048 -1.1591,-0.8714 -0.3098,-0.3662 -0.5485,-0.8019 -0.716,-1.3025 -0.1676,-0.5026 -0.2526,-1.021 -0.2526,-1.5593 0,-0.8847 0.2273,-1.7068 0.6795,-2.4665 0.4521,-0.7596 1.1038,-1.3606 1.9527,-1.8051 0.8493,-0.4424 1.9463,-0.6635 3.2911,-0.6635 0.9822,0 2.0678,0.1162 3.2609,0.3483 0,0.6347 0.0278,1.3405 0.0828,2.1181 -0.3234,-0.1049 -0.5831,-0.1831 -0.7826,-0.239 -0.1996,-0.0538 -0.4337,-0.1051 -0.7002,-0.1496 -0.2662,-0.0471 -0.5207,-0.0806 -0.7594,-0.1007 -0.2409,-0.0224 -0.4544,-0.0334 -0.6426,-0.0334 -0.4935,0 -0.9593,0.0691 -1.3998,0.2055 -0.4382,0.1383 -0.8172,0.3484 -1.1313,0.6344 -0.3169,0.2837 -0.5533,0.6256 -0.7092,1.021 -0.1584,0.3977 -0.2364,0.8155 -0.2364,1.2555 0,0.447 0.0896,0.8467 0.2687,1.1976 0.1812,0.3507 0.4655,0.6166 0.8558,0.7997 0.3901,0.1834 0.8263,0.2749 1.3082,0.2749 0.3991,0 0.8376,-0.0581 1.3124,-0.1743 l 0.0689,-1.3941 c -0.2891,-0.009 -0.4612,-0.0133 -0.5139,-0.0133 l -0.7115,0.007 0.0459,-0.8064 c 0.005,-0.0871 0.0116,-0.2143 0.0207,-0.3776 0.009,-0.163 0.0139,-0.3886 0.0139,-0.6724 z m 5.3768,5.201 c 0.259,-3.5076 0.3903,-6.2042 0.3903,-8.0966 l -0.007,-0.8444 c 0.7846,0.009 1.3079,0.0136 1.5721,0.0136 0.1213,0 0.6035,-0.004 1.4457,-0.0136 -0.0828,0.983 -0.1469,1.9125 -0.1976,2.7904 -0.0641,1.222 -0.11,2.3661 -0.1378,3.4294 -0.0272,1.0635 -0.0408,1.9706 -0.0408,2.7212 l -1.3748,-0.0133 c -0.2687,0 -0.8192,0.004 -1.65,0.0133 z m 6.7172,0 c 0.2203,-2.1223 0.3535,-4.4592 0.3969,-7.0106 l -2.8664,0.0669 0.0323,-0.7237 c 0.0184,-0.3889 0.032,-0.8133 0.0414,-1.2736 1.2736,0.009 2.7581,0.0136 4.4521,0.0136 l 1.6614,-0.007 1.6157,0 0.8739,-0.007 -0.0408,0.6389 c -0.0164,0.3441 -0.03,0.6279 -0.0371,0.8513 -0.007,0.2233 -0.009,0.3931 -0.009,0.5071 -0.9592,-0.0445 -1.751,-0.0669 -2.3729,-0.0669 l -0.4702,0 c -0.0692,0.7707 -0.1194,1.4833 -0.1562,2.1379 -0.0508,0.9385 -0.0873,1.8476 -0.1148,2.7303 -0.0275,0.8824 -0.0411,1.5973 -0.0411,2.1424 -0.7345,-0.009 -1.2073,-0.0133 -1.423,-0.0133 -0.1905,0 -0.7067,0.004 -1.5421,0.0133 z m 5.4919,0 0.5575,-0.9428 3.4745,-6.3808 0.3693,-0.7126 c 0.108,-0.21 0.2571,-0.5117 0.4499,-0.9048 0.7891,0.009 1.3654,0.0136 1.728,0.0136 0.631,0 1.2163,-0.004 1.7555,-0.0136 l 0.9802,2.7323 1.9987,5.2526 0.39,0.9561 c -0.7758,-0.009 -1.2461,-0.0133 -1.4113,-0.0133 -0.3762,0 -0.9318,0.004 -1.6614,0.0133 -0.1976,-0.7217 -0.4819,-1.5707 -0.8561,-2.5469 l -3.3848,0 c -0.3881,0.7707 -0.7895,1.6197 -1.205,2.5469 -0.8354,-0.009 -1.3471,-0.0133 -1.535,-0.0133 -0.3421,0 -0.8904,0.004 -1.65,0.0133 z m 5.2024,-4.4504 2.0883,0 c -0.521,-1.5392 -0.8056,-2.3882 -0.8561,-2.5446 -0.2937,0.6412 -0.5437,1.1661 -0.7503,1.5772 l -0.4819,0.9674 z m 7.1484,4.4504 c 0.1103,-1.0298 0.1905,-1.8723 0.2387,-2.5222 0.0941,-1.1863 0.163,-2.3684 0.2109,-3.5391 0.0462,-1.1727 0.0691,-2.1334 0.0691,-2.8797 0.6103,0.009 1.1498,0.0136 1.62,0.0136 0.3192,0 0.7759,-0.004 1.3723,-0.0136 l -0.1605,2.3748 -0.2043,3.7109 -0.025,0.9116 c 0.771,0.0133 1.2759,0.0201 1.5078,0.0201 1.1817,0 2.0766,-0.0156 2.6824,-0.0467 l -0.1514,1.9703 c -1.1795,-0.009 -2.3017,-0.0133 -3.3689,-0.0133 -1.4435,0 -2.7054,0.004 -3.7911,0.0133 z" />
  </g>
</svg>
