<?xml version="1.0" standalone="no"?><!-- Generator: Gravit.io --><svg xmlns="http://www.w3.org/2000/svg" xmlns:xlink="http://www.w3.org/1999/xlink" style="isolation:isolate" viewBox="0 0 185 74.67" width="185" height="74.67"><path d=" M 109.545 73.438 L 109.545 73.438 L 109.545 73.438 Q 109.504 72.753 109.449 72.341 L 109.449 72.341 L 109.449 72.341 Q 109.81 72.502 110.092 72.565 L 110.092 72.565 L 110.092 72.565 Q 110.374 72.628 110.587 72.628 L 110.587 72.628 L 110.587 72.628 Q 110.867 72.628 111.033 72.546 L 111.033 72.546 L 111.033 72.546 Q 111.199 72.464 111.199 72.303 L 111.199 72.303 L 111.199 72.303 Q 111.199 72.248 111.183 72.198 L 111.183 72.198 L 111.183 72.198 Q 111.167 72.148 111.121 72.086 L 111.121 72.086 L 111.121 72.086 Q 111.076 72.023 110.993 71.949 L 110.993 71.949 L 110.387 71.421 L 110.387 71.421 Q 110.174 71.241 110.09 71.161 L 110.09 71.161 L 110.09 71.161 Q 109.919 70.997 109.824 70.855 L 109.824 70.855 L 109.824 70.855 Q 109.729 70.714 109.685 70.567 L 109.685 70.567 L 109.685 70.567 Q 109.642 70.421 109.642 70.257 L 109.642 70.257 L 109.642 70.257 Q 109.642 70.061 109.711 69.873 L 109.711 69.873 L 109.711 69.873 Q 109.78 69.684 109.919 69.52 L 109.919 69.52 L 109.919 69.52 Q 110.057 69.356 110.285 69.237 L 110.285 69.237 L 110.285 69.237 Q 110.514 69.118 110.774 69.075 L 110.774 69.075 L 110.774 69.075 Q 111.035 69.031 111.311 69.031 L 111.311 69.031 L 111.311 69.031 Q 111.855 69.031 112.495 69.157 L 112.495 69.157 L 112.495 69.157 Q 112.505 69.379 112.518 69.564 L 112.518 69.564 L 112.518 69.564 Q 112.531 69.749 112.579 70.212 L 112.579 70.212 L 112.579 70.212 Q 112.283 70.093 112.038 70.046 L 112.038 70.046 L 112.038 70.046 Q 111.794 70 111.617 70 L 111.617 70 L 111.617 70 Q 111.366 70 111.2 70.093 L 111.2 70.093 L 111.2 70.093 Q 111.035 70.186 111.035 70.324 L 111.035 70.324 L 111.035 70.324 Q 111.035 70.389 111.061 70.45 L 111.061 70.45 L 111.061 70.45 Q 111.086 70.511 111.157 70.593 L 111.157 70.593 L 111.157 70.593 Q 111.228 70.675 111.344 70.773 L 111.344 70.773 L 111.344 70.773 Q 111.459 70.871 111.707 71.064 L 111.707 71.064 L 111.939 71.248 L 111.939 71.248 Q 112.042 71.331 112.161 71.45 L 112.161 71.45 L 112.161 71.45 Q 112.28 71.569 112.366 71.685 L 112.366 71.685 L 112.366 71.685 Q 112.453 71.801 112.5 71.897 L 112.5 71.897 L 112.5 71.897 Q 112.547 71.994 112.569 72.092 L 112.569 72.092 L 112.569 72.092 Q 112.592 72.19 112.592 72.303 L 112.592 72.303 L 112.592 72.303 Q 112.592 72.592 112.453 72.854 L 112.453 72.854 L 112.453 72.854 Q 112.315 73.117 112.061 73.285 L 112.061 73.285 L 112.061 73.285 Q 111.807 73.454 111.503 73.522 L 111.503 73.522 L 111.503 73.522 Q 111.199 73.589 110.861 73.589 L 110.861 73.589 L 110.861 73.589 Q 110.34 73.589 109.545 73.438 Z  M 113.679 73.503 L 113.222 73.506 L 113.222 73.506 Q 113.303 72.676 113.34 72.116 L 113.34 72.116 L 113.34 72.116 Q 113.377 71.556 113.414 70.628 L 113.414 70.628 L 113.414 70.628 Q 113.451 69.7 113.451 69.398 L 113.451 69.398 L 113.448 69.115 L 113.448 69.115 Q 114.207 69.121 115.284 69.121 L 115.284 69.121 L 115.284 69.121 Q 116.278 69.121 117.037 69.115 L 117.037 69.115 L 117.031 69.221 L 117.031 69.221 Q 117.028 69.259 117.015 69.5 L 117.015 69.5 L 116.995 69.849 L 116.995 69.849 Q 116.989 69.961 116.989 70.077 L 116.989 70.077 L 116.989 70.077 Q 116.368 70.051 115.947 70.051 L 115.947 70.051 L 115.947 70.051 Q 115.483 70.051 115.321 70.053 L 115.321 70.053 L 115.321 70.053 Q 115.159 70.054 114.814 70.067 L 114.814 70.067 L 114.775 70.807 L 114.775 70.807 Q 115.155 70.817 115.66 70.817 L 115.66 70.817 L 115.66 70.817 Q 115.84 70.817 116.619 70.794 L 116.619 70.794 L 116.619 70.794 Q 116.587 71.206 116.558 71.775 L 116.558 71.775 L 116.558 71.775 Q 116.002 71.769 115.703 71.769 L 115.703 71.769 L 115.703 71.769 Q 115.259 71.769 114.709 71.791 L 114.709 71.791 L 114.671 72.573 L 115.041 72.573 L 115.041 72.573 Q 115.205 72.573 115.719 72.563 L 115.719 72.563 L 116.384 72.547 L 116.384 72.547 Q 116.532 72.544 116.88 72.521 L 116.88 72.521 L 116.88 72.521 Q 116.841 72.998 116.815 73.506 L 116.815 73.506 L 116.815 73.506 Q 116.03 73.499 115.094 73.499 L 115.094 73.499 L 113.679 73.503 Z  M 120.151 70.945 L 120.151 70.945 L 120.151 70.945 Q 120.592 70.952 120.991 70.952 L 120.991 70.952 L 120.991 70.952 Q 121.672 70.952 122.058 70.945 L 122.058 70.945 L 122.058 70.945 Q 122.017 71.386 121.973 72.193 L 121.973 72.193 L 121.973 72.193 Q 121.93 73.001 121.92 73.413 L 121.92 73.413 L 121.92 73.413 Q 121.55 73.48 121.308 73.511 L 121.308 73.511 L 121.308 73.511 Q 121.065 73.541 120.724 73.565 L 120.724 73.565 L 120.724 73.565 Q 120.383 73.589 120.116 73.589 L 120.116 73.589 L 120.116 73.589 Q 119.678 73.589 119.257 73.519 L 119.257 73.519 L 119.257 73.519 Q 118.835 73.448 118.502 73.29 L 118.502 73.29 L 118.502 73.29 Q 118.169 73.133 117.948 72.862 L 117.948 72.862 L 117.948 72.862 Q 117.726 72.592 117.605 72.222 L 117.605 72.222 L 117.605 72.222 Q 117.484 71.852 117.484 71.457 L 117.484 71.457 L 117.484 71.457 Q 117.484 70.804 117.809 70.244 L 117.809 70.244 L 117.809 70.244 Q 118.134 69.684 118.744 69.358 L 118.744 69.358 L 118.744 69.358 Q 119.353 69.031 120.318 69.031 L 120.318 69.031 L 120.318 69.031 Q 121.023 69.031 121.878 69.202 L 121.878 69.202 L 121.878 69.202 Q 121.878 69.671 121.92 70.247 L 121.92 70.247 L 121.92 70.247 Q 121.689 70.17 121.545 70.13 L 121.545 70.13 L 121.545 70.13 Q 121.402 70.09 121.211 70.056 L 121.211 70.056 L 121.211 70.056 Q 121.019 70.022 120.847 70.006 L 120.847 70.006 L 120.847 70.006 Q 120.675 69.99 120.54 69.99 L 120.54 69.99 L 120.54 69.99 Q 120.186 69.99 119.871 70.091 L 119.871 70.091 L 119.871 70.091 Q 119.556 70.193 119.329 70.403 L 119.329 70.403 L 119.329 70.403 Q 119.102 70.614 118.99 70.907 L 118.99 70.907 L 118.99 70.907 Q 118.877 71.199 118.877 71.524 L 118.877 71.524 L 118.877 71.524 Q 118.877 71.856 119.006 72.115 L 119.006 72.115 L 119.006 72.115 Q 119.134 72.374 119.414 72.509 L 119.414 72.509 L 119.414 72.509 Q 119.694 72.644 120.038 72.644 L 120.038 72.644 L 120.038 72.644 Q 120.325 72.644 120.666 72.56 L 120.666 72.56 L 120.702 71.862 L 120.702 71.862 Q 120.493 71.852 120.454 71.852 L 120.454 71.852 L 120.112 71.856 L 120.135 71.46 L 120.135 71.46 Q 120.138 71.396 120.145 71.275 L 120.145 71.275 L 120.145 71.275 Q 120.151 71.154 120.151 70.945 Z  M 122.844 70.386 L 122.902 69.115 L 122.902 69.115 Q 123.404 69.121 123.609 69.121 L 123.609 69.121 L 123.609 69.121 Q 123.866 69.121 124.294 69.115 L 124.294 69.115 L 124.198 70.482 L 124.198 70.482 Q 124.17 70.868 124.155 71.206 L 124.155 71.206 L 124.155 71.206 Q 124.141 71.544 124.141 71.672 L 124.141 71.672 L 124.141 71.672 Q 124.141 71.917 124.176 72.081 L 124.176 72.081 L 124.176 72.081 Q 124.212 72.245 124.305 72.359 L 124.305 72.359 L 124.305 72.359 Q 124.398 72.473 124.564 72.531 L 124.564 72.531 L 124.564 72.531 Q 124.729 72.589 124.909 72.589 L 124.909 72.589 L 124.909 72.589 Q 125.063 72.589 125.198 72.547 L 125.198 72.547 L 125.198 72.547 Q 125.304 72.512 125.388 72.451 L 125.388 72.451 L 125.388 72.451 Q 125.462 72.394 125.517 72.317 L 125.517 72.317 L 125.517 72.317 Q 125.584 72.225 125.636 72.087 L 125.636 72.087 L 125.636 72.087 Q 125.687 71.957 125.713 71.75 L 125.713 71.75 L 125.713 71.75 Q 125.742 71.54 125.79 70.793 L 125.79 70.793 L 125.79 70.793 Q 125.832 70.157 125.854 69.628 L 125.854 69.628 L 125.854 69.628 Q 125.874 69.115 125.89 69.115 L 125.89 69.115 L 125.89 69.115 Q 126.375 69.115 126.655 69.115 L 126.655 69.115 L 127.308 69.115 L 127.152 71.399 L 127.152 71.399 Q 127.149 71.463 127.149 71.505 L 127.149 71.505 L 127.149 71.505 Q 127.136 72.174 127.067 72.449 L 127.067 72.449 L 127.067 72.449 Q 126.997 72.724 126.837 72.927 L 126.837 72.927 L 126.837 72.927 Q 126.676 73.129 126.367 73.292 L 126.367 73.292 L 126.367 73.292 Q 126.058 73.454 125.665 73.522 L 125.665 73.522 L 125.665 73.522 Q 125.273 73.589 124.871 73.589 L 124.871 73.589 L 124.871 73.589 Q 124.51 73.589 124.176 73.538 L 124.176 73.538 L 124.176 73.538 Q 123.867 73.486 123.619 73.388 L 123.619 73.388 L 123.619 73.388 Q 123.371 73.29 123.188 73.158 L 123.188 73.158 L 123.188 73.158 Q 123.02 73.036 122.93 72.909 L 122.93 72.909 L 122.93 72.909 Q 122.84 72.782 122.789 72.605 L 122.789 72.605 L 122.789 72.605 Q 122.731 72.406 122.731 72.177 L 122.731 72.177 L 122.731 72.177 Q 122.731 72.1 122.737 71.944 L 122.737 71.944 L 122.737 71.944 Q 122.744 71.788 122.766 71.495 L 122.766 71.495 L 122.808 70.981 L 122.808 70.981 Q 122.824 70.778 122.844 70.386 L 122.844 70.386 Z  M 127.823 73.506 L 127.823 73.506 L 127.823 73.506 Q 127.884 72.94 127.92 72.486 L 127.92 72.486 L 127.92 72.486 Q 127.955 72.033 127.981 71.434 L 127.981 71.434 L 127.981 71.434 Q 128.007 70.836 128.02 70.172 L 128.02 70.172 L 128.02 70.172 Q 128.033 69.507 128.033 69.115 L 128.033 69.115 L 128.033 69.115 Q 128.435 69.125 128.682 69.125 L 128.682 69.125 L 128.682 69.125 Q 128.94 69.125 129.309 69.11 L 129.309 69.11 L 129.309 69.11 Q 129.679 69.096 130.03 69.096 L 130.03 69.096 L 130.03 69.096 Q 130.441 69.096 130.763 69.128 L 130.763 69.128 L 130.763 69.128 Q 131.004 69.15 131.202 69.221 L 131.202 69.221 L 131.202 69.221 Q 131.4 69.292 131.535 69.393 L 131.535 69.393 L 131.535 69.393 Q 131.67 69.495 131.76 69.62 L 131.76 69.62 L 131.76 69.62 Q 131.85 69.745 131.9 69.914 L 131.9 69.914 L 131.9 69.914 Q 131.95 70.083 131.95 70.276 L 131.95 70.276 L 131.95 70.276 Q 131.95 70.492 131.895 70.68 L 131.895 70.68 L 131.895 70.68 Q 131.841 70.868 131.723 71.034 L 131.723 71.034 L 131.723 71.034 Q 131.606 71.199 131.427 71.32 L 131.427 71.32 L 131.427 71.32 Q 131.249 71.441 130.927 71.566 L 130.927 71.566 L 131.094 71.975 L 131.094 71.975 Q 131.165 72.145 131.245 72.322 L 131.245 72.322 L 131.676 73.265 L 131.676 73.265 Q 131.705 73.326 131.779 73.506 L 131.779 73.506 L 131.779 73.506 Q 131.249 73.499 131.066 73.499 L 131.066 73.499 L 131.066 73.499 Q 130.834 73.499 130.307 73.506 L 130.307 73.506 L 130.307 73.506 Q 130.256 73.339 130.12 72.885 L 130.12 72.885 L 130.12 72.885 Q 130.066 72.695 130.027 72.592 L 130.027 72.592 L 130.027 72.592 Q 129.95 72.364 129.798 71.952 L 129.798 71.952 L 129.467 71.042 L 129.467 71.042 Q 129.64 71.074 129.808 71.074 L 129.808 71.074 L 129.808 71.074 Q 130.042 71.074 130.234 71.003 L 130.234 71.003 L 130.234 71.003 Q 130.425 70.932 130.523 70.784 L 130.523 70.784 L 130.523 70.784 Q 130.621 70.636 130.621 70.472 L 130.621 70.472 L 130.621 70.472 Q 130.621 70.334 130.547 70.23 L 130.547 70.23 L 130.547 70.23 Q 130.473 70.125 130.314 70.074 L 130.314 70.074 L 130.314 70.074 Q 130.155 70.022 129.824 70.022 L 129.824 70.022 L 129.824 70.022 Q 129.711 70.022 129.59 70.027 L 129.59 70.027 L 129.59 70.027 Q 129.47 70.032 129.309 70.035 L 129.309 70.035 L 129.309 70.035 Q 129.268 70.694 129.236 71.643 L 129.236 71.643 L 129.236 71.643 Q 129.204 72.592 129.195 73.506 L 129.195 73.506 L 129.195 73.506 Q 128.657 73.499 128.496 73.499 L 128.496 73.499 L 128.496 73.499 Q 128.309 73.499 127.823 73.506 Z  M 131.869 73.506 L 131.869 73.506 L 132.137 73.043 L 133.8 69.91 L 133.978 69.559 L 133.978 69.559 Q 134.055 69.404 134.193 69.115 L 134.193 69.115 L 134.193 69.115 Q 134.759 69.121 135.02 69.121 L 135.02 69.121 L 135.02 69.121 Q 135.473 69.121 135.859 69.115 L 135.859 69.115 L 136.329 70.456 L 137.283 73.036 L 137.47 73.506 L 137.47 73.506 Q 136.913 73.499 136.794 73.499 L 136.794 73.499 L 136.794 73.499 Q 136.523 73.499 135.998 73.506 L 135.998 73.506 L 135.998 73.506 Q 135.857 72.975 135.59 72.258 L 135.59 72.258 L 133.971 72.258 L 133.971 72.258 Q 133.691 72.824 133.393 73.506 L 133.393 73.506 L 133.393 73.506 Q 132.794 73.499 132.658 73.499 L 132.658 73.499 L 132.658 73.499 Q 132.414 73.499 131.869 73.506 Z  M 134.591 70.846 L 134.36 71.322 L 135.359 71.322 L 135.359 71.322 Q 134.987 70.188 134.951 70.072 L 134.951 70.072 L 134.951 70.072 Q 134.739 70.545 134.591 70.846 L 134.591 70.846 Z  M 137.811 73.506 L 137.811 73.506 L 137.875 72.83 L 138.001 70.54 L 138.036 69.617 L 138.036 69.115 L 138.036 69.115 Q 138.535 69.121 138.919 69.121 L 138.919 69.121 L 138.919 69.121 Q 139.192 69.121 139.689 69.115 L 139.689 69.115 L 141.062 71.612 L 141.251 71.979 L 141.251 71.979 Q 141.287 71.438 141.325 70.463 L 141.325 70.463 L 141.325 70.463 Q 141.363 69.488 141.363 69.115 L 141.363 69.115 L 141.363 69.115 Q 141.759 69.121 141.996 69.121 L 141.996 69.121 L 141.996 69.121 Q 142.106 69.121 142.626 69.115 L 142.626 69.115 L 142.549 70.074 L 142.404 72.737 L 142.385 73.506 L 142.385 73.506 Q 141.966 73.499 141.603 73.499 L 141.603 73.499 L 141.603 73.499 Q 141.3 73.499 140.766 73.506 L 140.766 73.506 L 140.766 73.506 Q 140.599 73.19 140.518 73.049 L 140.518 73.049 L 139.979 72.132 L 139.979 72.132 Q 139.712 71.681 139.487 71.269 L 139.487 71.269 L 139.487 71.269 Q 139.339 71.009 139.182 70.696 L 139.182 70.696 L 139.113 72.222 L 139.08 73.506 L 139.08 73.506 Q 138.681 73.499 138.473 73.499 L 138.473 73.499 L 138.473 73.499 Q 138.296 73.499 137.811 73.506 Z  M 147.017 72.435 L 147.017 72.435 L 147.017 72.435 Q 146.978 72.624 146.924 72.962 L 146.924 72.962 L 146.924 72.962 Q 146.869 73.3 146.85 73.486 L 146.85 73.486 L 146.85 73.486 Q 146.161 73.589 145.621 73.589 L 145.621 73.589 L 145.621 73.589 Q 145.1 73.589 144.651 73.459 L 144.651 73.459 L 144.651 73.459 Q 144.202 73.329 143.828 73.031 L 143.828 73.031 L 143.828 73.031 Q 143.453 72.734 143.292 72.332 L 143.292 72.332 L 143.292 72.332 Q 143.131 71.93 143.131 71.431 L 143.131 71.431 L 143.131 71.431 Q 143.131 70.849 143.348 70.384 L 143.348 70.384 L 143.348 70.384 Q 143.565 69.919 143.972 69.609 L 143.972 69.609 L 143.972 69.609 Q 144.379 69.298 144.865 69.165 L 144.865 69.165 L 144.865 69.165 Q 145.351 69.031 145.869 69.031 L 145.869 69.031 L 145.869 69.031 Q 146.345 69.031 147.046 69.154 L 147.046 69.154 L 147.052 69.424 L 147.052 69.424 Q 147.059 69.601 147.072 69.813 L 147.072 69.813 L 147.094 70.18 L 147.094 70.18 Q 146.718 70.09 146.485 70.057 L 146.485 70.057 L 146.485 70.057 Q 146.251 70.025 146.052 70.025 L 146.052 70.025 L 146.052 70.025 Q 145.618 70.025 145.27 70.199 L 145.27 70.199 L 145.27 70.199 Q 144.923 70.373 144.723 70.704 L 144.723 70.704 L 144.723 70.704 Q 144.524 71.035 144.524 71.437 L 144.524 71.437 L 144.524 71.437 Q 144.524 71.804 144.691 72.066 L 144.691 72.066 L 144.691 72.066 Q 144.859 72.328 145.143 72.472 L 145.143 72.472 L 145.143 72.472 Q 145.428 72.615 145.846 72.615 L 145.846 72.615 L 145.846 72.615 Q 146.074 72.615 146.343 72.578 L 146.343 72.578 L 146.343 72.578 Q 146.612 72.541 147.017 72.435 Z  M 146.229 73.773 L 146.229 73.773 L 146.229 73.773 Q 146.058 74.101 145.981 74.259 L 145.981 74.259 L 145.782 74.67 L 145.782 74.67 Q 145.306 74.661 145.138 74.661 L 145.138 74.661 L 145.138 74.661 Q 145.052 74.661 144.485 74.67 L 144.485 74.67 L 144.485 74.67 Q 144.965 74.037 145.155 73.757 L 145.155 73.757 L 145.155 73.757 Q 145.367 73.776 145.47 73.779 L 145.47 73.779 L 145.47 73.779 Q 145.573 73.782 145.775 73.782 L 145.775 73.782 L 145.775 73.782 Q 145.91 73.782 146.229 73.773 Z  M 147.056 73.506 L 147.056 73.506 L 147.323 73.043 L 148.987 69.91 L 149.164 69.559 L 149.164 69.559 Q 149.241 69.404 149.379 69.115 L 149.379 69.115 L 149.379 69.115 Q 149.945 69.121 150.206 69.121 L 150.206 69.121 L 150.206 69.121 Q 150.659 69.121 151.045 69.115 L 151.045 69.115 L 151.515 70.456 L 152.469 73.036 L 152.656 73.506 L 152.656 73.506 Q 152.099 73.499 151.98 73.499 L 151.98 73.499 L 151.98 73.499 Q 151.709 73.499 151.184 73.506 L 151.184 73.506 L 151.184 73.506 Q 151.043 72.975 150.776 72.258 L 150.776 72.258 L 149.157 72.258 L 149.157 72.258 Q 148.878 72.824 148.579 73.506 L 148.579 73.506 L 148.579 73.506 Q 147.98 73.499 147.844 73.499 L 147.844 73.499 L 147.844 73.499 Q 147.6 73.499 147.056 73.506 Z  M 149.777 70.846 L 149.546 71.322 L 150.545 71.322 L 150.545 71.322 Q 150.173 70.188 150.137 70.072 L 150.137 70.072 L 150.137 70.072 Q 149.925 70.545 149.777 70.846 L 149.777 70.846 Z  M 154.647 73.506 L 154.647 73.506 L 154.647 73.506 Q 154.718 72.772 154.744 72.332 L 154.744 72.332 L 154.744 72.332 Q 154.783 71.675 154.822 70.633 L 154.822 70.633 L 154.822 70.633 Q 154.851 69.836 154.851 69.491 L 154.851 69.491 L 154.851 69.115 L 154.851 69.115 Q 155.227 69.125 155.501 69.125 L 155.501 69.125 L 155.501 69.125 Q 155.764 69.125 156.192 69.11 L 156.192 69.11 L 156.192 69.11 Q 156.62 69.096 156.996 69.096 L 156.996 69.096 L 156.996 69.096 Q 157.427 69.096 157.752 69.147 L 157.752 69.147 L 157.752 69.147 Q 158.076 69.199 158.358 69.359 L 158.358 69.359 L 158.358 69.359 Q 158.639 69.52 158.829 69.781 L 158.829 69.781 L 158.829 69.781 Q 159.019 70.041 159.118 70.39 L 159.118 70.39 L 159.118 70.39 Q 159.218 70.739 159.218 71.109 L 159.218 71.109 L 159.218 71.109 Q 159.218 71.473 159.141 71.809 L 159.141 71.809 L 159.141 71.809 Q 159.064 72.145 158.925 72.415 L 158.925 72.415 L 158.925 72.415 Q 158.787 72.686 158.602 72.88 L 158.602 72.88 L 158.602 72.88 Q 158.417 73.075 158.179 73.213 L 158.179 73.213 L 158.179 73.213 Q 158.002 73.316 157.822 73.374 L 157.822 73.374 L 157.822 73.374 Q 157.642 73.432 157.33 73.467 L 157.33 73.467 L 157.33 73.467 Q 156.982 73.506 156.542 73.506 L 156.542 73.506 L 155.242 73.496 L 155.242 73.496 Q 155.059 73.496 154.647 73.506 Z  M 156.146 70.057 L 156.038 72.538 L 156.038 72.538 Q 156.215 72.554 156.407 72.554 L 156.407 72.554 L 156.407 72.554 Q 156.735 72.554 156.993 72.496 L 156.993 72.496 L 156.993 72.496 Q 157.25 72.438 157.444 72.248 L 157.444 72.248 L 157.444 72.248 Q 157.639 72.058 157.732 71.761 L 157.732 71.761 L 157.732 71.761 Q 157.825 71.463 157.825 71.151 L 157.825 71.151 L 157.825 71.151 Q 157.825 70.768 157.687 70.506 L 157.687 70.506 L 157.687 70.506 Q 157.549 70.244 157.319 70.141 L 157.319 70.141 L 157.319 70.141 Q 157.089 70.038 156.693 70.038 L 156.693 70.038 L 156.693 70.038 Q 156.461 70.038 156.146 70.057 L 156.146 70.057 Z  M 159.749 73.506 L 159.749 73.506 L 159.749 73.506 Q 159.934 70.923 159.934 69.53 L 159.934 69.53 L 159.931 69.115 L 159.931 69.115 Q 160.494 69.121 160.684 69.121 L 160.684 69.121 L 160.684 69.121 Q 160.771 69.121 161.376 69.115 L 161.376 69.115 L 161.376 69.115 Q 161.318 69.839 161.283 70.485 L 161.283 70.485 L 161.283 70.485 Q 161.238 71.386 161.218 72.169 L 161.218 72.169 L 161.218 72.169 Q 161.199 72.953 161.199 73.506 L 161.199 73.506 L 160.54 73.499 L 160.54 73.499 Q 160.347 73.499 159.749 73.506 Z  M 164.571 70.945 L 164.571 70.945 L 164.571 70.945 Q 165.011 70.952 165.41 70.952 L 165.41 70.952 L 165.41 70.952 Q 166.092 70.952 166.478 70.945 L 166.478 70.945 L 166.478 70.945 Q 166.436 71.386 166.393 72.193 L 166.393 72.193 L 166.393 72.193 Q 166.35 73.001 166.34 73.413 L 166.34 73.413 L 166.34 73.413 Q 165.97 73.48 165.727 73.511 L 165.727 73.511 L 165.727 73.511 Q 165.484 73.541 165.143 73.565 L 165.143 73.565 L 165.143 73.565 Q 164.802 73.589 164.535 73.589 L 164.535 73.589 L 164.535 73.589 Q 164.098 73.589 163.676 73.519 L 163.676 73.519 L 163.676 73.519 Q 163.255 73.448 162.922 73.29 L 162.922 73.29 L 162.922 73.29 Q 162.589 73.133 162.367 72.862 L 162.367 72.862 L 162.367 72.862 Q 162.145 72.592 162.025 72.222 L 162.025 72.222 L 162.025 72.222 Q 161.904 71.852 161.904 71.457 L 161.904 71.457 L 161.904 71.457 Q 161.904 70.804 162.229 70.244 L 162.229 70.244 L 162.229 70.244 Q 162.554 69.684 163.163 69.358 L 163.163 69.358 L 163.163 69.358 Q 163.773 69.031 164.738 69.031 L 164.738 69.031 L 164.738 69.031 Q 165.442 69.031 166.298 69.202 L 166.298 69.202 L 166.298 69.202 Q 166.298 69.671 166.34 70.247 L 166.34 70.247 L 166.34 70.247 Q 166.108 70.17 165.965 70.13 L 165.965 70.13 L 165.965 70.13 Q 165.822 70.09 165.631 70.056 L 165.631 70.056 L 165.631 70.056 Q 165.439 70.022 165.267 70.006 L 165.267 70.006 L 165.267 70.006 Q 165.095 69.99 164.96 69.99 L 164.96 69.99 L 164.96 69.99 Q 164.606 69.99 164.291 70.091 L 164.291 70.091 L 164.291 70.091 Q 163.976 70.193 163.749 70.403 L 163.749 70.403 L 163.749 70.403 Q 163.522 70.614 163.409 70.907 L 163.409 70.907 L 163.409 70.907 Q 163.297 71.199 163.297 71.524 L 163.297 71.524 L 163.297 71.524 Q 163.297 71.856 163.425 72.115 L 163.425 72.115 L 163.425 72.115 Q 163.554 72.374 163.834 72.509 L 163.834 72.509 L 163.834 72.509 Q 164.114 72.644 164.458 72.644 L 164.458 72.644 L 164.458 72.644 Q 164.744 72.644 165.085 72.56 L 165.085 72.56 L 165.122 71.862 L 165.122 71.862 Q 164.912 71.852 164.874 71.852 L 164.874 71.852 L 164.532 71.856 L 164.555 71.46 L 164.555 71.46 Q 164.558 71.396 164.564 71.275 L 164.564 71.275 L 164.564 71.275 Q 164.571 71.154 164.571 70.945 Z  M 167.141 73.506 L 167.141 73.506 L 167.141 73.506 Q 167.326 70.923 167.326 69.53 L 167.326 69.53 L 167.323 69.115 L 167.323 69.115 Q 167.886 69.121 168.076 69.121 L 168.076 69.121 L 168.076 69.121 Q 168.163 69.121 168.768 69.115 L 168.768 69.115 L 168.768 69.115 Q 168.71 69.839 168.675 70.485 L 168.675 70.485 L 168.675 70.485 Q 168.63 71.386 168.61 72.169 L 168.61 72.169 L 168.61 72.169 Q 168.591 72.953 168.591 73.506 L 168.591 73.506 L 167.932 73.499 L 167.932 73.499 Q 167.739 73.499 167.141 73.506 Z  M 170.357 73.506 L 170.357 73.506 L 170.357 73.506 Q 170.517 71.942 170.549 70.064 L 170.549 70.064 L 169.18 70.099 L 169.196 69.742 L 169.196 69.742 Q 169.209 69.456 169.216 69.115 L 169.216 69.115 L 169.216 69.115 Q 170.129 69.121 171.344 69.121 L 171.344 69.121 L 172.139 69.118 L 172.91 69.118 L 173.328 69.115 L 173.309 69.43 L 173.309 69.43 Q 173.296 69.683 173.291 69.849 L 173.291 69.849 L 173.291 69.849 Q 173.287 70.015 173.287 70.099 L 173.287 70.099 L 173.287 70.099 Q 172.599 70.064 172.152 70.064 L 172.152 70.064 L 171.927 70.064 L 171.927 70.064 Q 171.879 70.632 171.853 71.114 L 171.853 71.114 L 171.853 71.114 Q 171.817 71.804 171.798 72.454 L 171.798 72.454 L 171.798 72.454 Q 171.778 73.104 171.778 73.506 L 171.778 73.506 L 171.778 73.506 Q 171.251 73.499 171.097 73.499 L 171.097 73.499 L 171.097 73.499 Q 170.959 73.499 170.357 73.506 Z  M 172.986 73.506 L 172.986 73.506 L 173.253 73.043 L 174.917 69.91 L 175.094 69.559 L 175.094 69.559 Q 175.171 69.404 175.309 69.115 L 175.309 69.115 L 175.309 69.115 Q 175.875 69.121 176.136 69.121 L 176.136 69.121 L 176.136 69.121 Q 176.589 69.121 176.975 69.115 L 176.975 69.115 L 177.445 70.456 L 178.399 73.036 L 178.586 73.506 L 178.586 73.506 Q 178.029 73.499 177.91 73.499 L 177.91 73.499 L 177.91 73.499 Q 177.639 73.499 177.114 73.506 L 177.114 73.506 L 177.114 73.506 Q 176.973 72.975 176.706 72.258 L 176.706 72.258 L 175.087 72.258 L 175.087 72.258 Q 174.808 72.824 174.509 73.506 L 174.509 73.506 L 174.509 73.506 Q 173.91 73.499 173.774 73.499 L 173.774 73.499 L 173.774 73.499 Q 173.53 73.499 172.986 73.506 Z  M 175.707 70.846 L 175.476 71.322 L 176.475 71.322 L 176.475 71.322 Q 176.103 70.188 176.067 70.072 L 176.067 70.072 L 176.067 70.072 Q 175.855 70.545 175.707 70.846 L 175.707 70.846 Z  M 178.891 73.506 L 178.891 73.506 L 178.891 73.506 Q 178.972 72.747 179.008 72.267 L 179.008 72.267 L 179.008 72.267 Q 179.076 71.392 179.11 70.529 L 179.11 70.529 L 179.11 70.529 Q 179.143 69.665 179.143 69.115 L 179.143 69.115 L 179.143 69.115 Q 179.581 69.121 179.918 69.121 L 179.918 69.121 L 179.918 69.121 Q 180.146 69.121 180.574 69.115 L 180.574 69.115 L 180.496 70.279 L 180.399 72.1 L 180.386 72.547 L 180.386 72.547 Q 180.94 72.557 181.107 72.557 L 181.107 72.557 L 181.107 72.557 Q 181.954 72.557 182.388 72.534 L 182.388 72.534 L 182.317 73.506 L 182.317 73.506 Q 181.471 73.499 180.706 73.499 L 180.706 73.499 L 180.706 73.499 Q 179.67 73.499 178.891 73.506 Z  M 121.683 47.207 L 127.637 47.118 L 127.189 61.866 L 121.011 61.866 L 121.683 47.207 L 121.683 47.207 Z  M 176.59 47.224 Q 178.37 47.224 180.006 47.769 Q 181.656 48.314 182.79 49.348 Q 183.924 50.367 184.455 51.744 Q 185 53.108 185 54.686 Q 185 56.222 184.512 57.614 Q 184.038 58.992 182.89 60.212 Q 181.742 61.417 179.963 62.02 Q 178.197 62.623 176.217 62.623 Q 174.394 62.623 172.715 62.092 Q 171.036 61.561 169.902 60.542 Q 168.783 59.523 168.209 58.102 Q 167.649 56.681 167.649 55.117 Q 167.649 53.553 168.194 52.132 Q 168.754 50.711 169.945 49.577 Q 171.151 48.444 172.916 47.841 Q 174.681 47.224 176.59 47.224 L 176.59 47.224 Z  M 176.49 51.443 Q 175.571 51.443 174.853 51.917 Q 174.136 52.39 173.763 53.309 Q 173.404 54.213 173.404 55.289 Q 173.404 56.868 174.193 57.715 Q 174.983 58.547 176.174 58.547 Q 177.078 58.547 177.796 58.073 Q 178.513 57.586 178.872 56.653 Q 179.245 55.705 179.245 54.629 Q 179.245 53.739 178.958 53.022 Q 178.671 52.304 178.011 51.874 Q 177.365 51.443 176.49 51.443 L 176.49 51.443 Z  M 164.8 57.916 Q 164.613 58.777 164.082 62.078 Q 162.418 62.408 161.284 62.508 Q 160.15 62.623 158.988 62.623 Q 157.28 62.623 155.845 62.379 Q 154.409 62.149 153.362 61.547 Q 152.328 60.944 151.625 60.054 Q 150.922 59.15 150.549 57.916 Q 150.19 56.681 150.19 55.375 Q 150.19 53.538 150.922 51.787 Q 151.654 50.022 152.802 49.032 Q 153.965 48.042 155.471 47.626 Q 156.978 47.209 158.557 47.209 Q 160.193 47.209 161.671 47.597 Q 163.164 47.97 164.197 48.917 Q 165.23 49.864 165.661 51.056 Q 166.106 52.247 166.106 53.624 Q 166.106 54.443 165.919 55.447 L 155.859 55.461 Q 155.845 55.691 155.845 55.878 Q 155.845 57.428 156.95 58.16 Q 158.055 58.891 159.648 58.891 Q 160.595 58.891 161.8 58.676 Q 163.02 58.447 164.8 57.916 L 164.8 57.916 Z  M 155.974 53.266 L 160.71 53.266 Q 160.724 53.022 160.724 52.85 Q 160.724 52.103 160.451 51.572 Q 160.193 51.041 159.691 50.797 Q 159.203 50.553 158.586 50.553 Q 158.155 50.553 157.753 50.697 Q 157.351 50.826 157.021 51.099 Q 156.706 51.357 156.49 51.701 Q 156.275 52.046 156.175 52.376 Q 156.074 52.692 155.974 53.266 L 155.974 53.266 Z  M 147.292 62.25 Q 145.756 62.221 144.737 62.221 Q 143.589 62.221 141.953 62.25 L 142.039 60.427 Q 141.48 60.972 141.063 61.317 Q 140.647 61.647 139.987 61.963 Q 139.341 62.278 138.581 62.451 Q 137.834 62.623 137.031 62.623 Q 135.653 62.623 134.447 62.121 Q 133.256 61.618 132.409 60.7 Q 131.563 59.767 131.147 58.504 Q 130.73 57.227 130.73 55.863 Q 130.73 53.926 131.491 52.075 Q 132.252 50.223 133.471 49.161 Q 134.706 48.099 136.241 47.669 Q 137.791 47.224 139.585 47.224 Q 140.776 47.224 142.369 47.439 Q 142.484 45.731 142.527 42.66 Q 144.293 42.689 145.412 42.689 Q 146.861 42.689 148.34 42.66 Q 147.923 46.922 147.608 53.065 Q 147.292 59.207 147.292 62.25 L 147.292 62.25 Z  M 142.168 51.17 Q 141.408 50.998 140.733 50.998 Q 139.341 50.998 138.365 51.544 Q 137.389 52.075 136.858 53.223 Q 136.342 54.356 136.342 55.461 Q 136.342 56.294 136.629 56.968 Q 136.93 57.629 137.533 58.016 Q 138.15 58.404 138.896 58.404 Q 139.686 58.404 140.331 57.959 Q 140.992 57.514 141.393 56.653 Q 141.81 55.792 141.953 54.615 Q 142.111 53.424 142.168 51.17 L 142.168 51.17 Z  M 107.9 61.866 L 106.379 57.159 L 102.949 47.213 Q 104.585 47.242 105.991 47.242 Q 107.455 47.242 108.747 47.213 Q 108.991 48.204 109.708 50.686 Q 110.426 53.155 111.287 56.571 L 111.66 55.379 Q 111.746 55.164 112.334 53.542 L 114.616 47.213 Q 116.166 47.242 117.544 47.242 Q 118.965 47.242 120.5 47.213 L 118.52 51.476 L 114.832 59.943 L 114.042 61.866 Q 112.349 61.838 111.057 61.838 Q 109.651 61.838 107.9 61.866 L 107.9 61.866 Z  M 87.735 51.773 Q 88.008 50.352 88.08 49.821 Q 88.151 49.276 88.309 48.128 Q 92.443 47.224 95.413 47.224 Q 97.107 47.224 98.513 47.611 Q 99.92 47.984 100.709 48.831 Q 101.498 49.678 101.498 51.256 Q 101.498 52.06 101.283 54.873 Q 101.068 57.686 100.953 62.25 Q 99.547 62.221 98.154 62.221 Q 96.805 62.221 95.284 62.25 Q 95.485 60.671 95.729 55.734 Q 95.184 55.992 94.868 56.107 Q 94.567 56.222 93.792 56.452 Q 93.017 56.681 92.572 56.839 Q 92.141 56.997 91.811 57.241 Q 91.495 57.485 91.352 57.743 Q 91.223 58.002 91.223 58.317 Q 91.223 58.805 91.61 59.15 Q 91.998 59.494 92.844 59.494 Q 93.146 59.494 93.49 59.451 Q 93.835 59.394 94.437 59.193 Q 94.021 60.298 93.447 62.422 Q 92.213 62.623 91.108 62.623 Q 89.328 62.623 88.137 62.135 Q 86.96 61.633 86.314 60.528 Q 85.683 59.422 85.683 58.317 Q 85.683 57.643 85.913 56.997 Q 86.157 56.351 86.659 55.734 Q 87.161 55.117 87.836 54.686 Q 88.51 54.242 89.673 53.854 Q 90.849 53.467 92.643 53.122 Q 93.39 52.979 94.007 52.821 Q 94.638 52.649 94.897 52.534 Q 95.169 52.405 95.327 52.247 Q 95.499 52.074 95.571 51.902 Q 95.643 51.716 95.643 51.515 Q 95.643 50.969 95.184 50.682 Q 94.724 50.381 93.835 50.381 Q 91.366 50.381 87.735 51.773 L 87.735 51.773 Z  M 59.668 61.866 L 60.07 54.949 L 60.3 49.538 L 60.328 47.213 Q 61.907 47.242 63.112 47.242 Q 64.476 47.242 65.767 47.213 L 65.667 49.122 Q 66.112 48.548 66.413 48.247 Q 66.729 47.931 67.174 47.658 Q 67.619 47.371 68.092 47.213 Q 68.566 47.041 69.154 46.941 Q 69.743 46.84 70.389 46.84 Q 71.121 46.84 71.738 46.969 Q 72.355 47.084 72.8 47.271 Q 73.245 47.457 73.575 47.701 Q 73.905 47.945 74.149 48.261 Q 74.407 48.562 74.737 49.151 Q 75.369 48.232 76.072 47.759 Q 76.775 47.285 77.665 47.07 Q 78.569 46.84 79.516 46.84 Q 80.765 46.84 81.87 47.199 Q 82.975 47.558 83.678 48.448 Q 84.396 49.323 84.396 50.729 Q 84.396 51.39 84.295 52.724 Q 84.209 54.059 84.037 57.317 Q 83.879 60.56 83.865 61.866 Q 82.544 61.838 81.31 61.838 Q 79.803 61.838 78.153 61.866 Q 78.296 60.044 78.44 57.302 Q 78.598 54.547 78.598 53.485 Q 78.598 52.566 78.382 52.122 Q 78.167 51.662 77.823 51.504 Q 77.493 51.332 77.091 51.332 Q 76.66 51.332 76.345 51.49 Q 76 51.662 75.742 52.021 Q 75.397 52.495 75.182 53.212 Q 75.01 53.772 74.909 54.92 Q 74.809 56.097 74.752 58.02 L 74.637 61.866 Q 73.101 61.838 71.867 61.838 Q 70.604 61.838 68.896 61.866 Q 69.025 60.589 69.197 57.575 Q 69.37 54.561 69.37 53.542 Q 69.37 52.681 69.197 52.251 Q 69.025 51.82 68.71 51.562 Q 68.408 51.304 67.892 51.304 Q 67.332 51.304 66.916 51.634 Q 66.499 51.964 66.198 52.581 Q 65.911 53.198 65.782 54.289 Q 65.667 55.365 65.567 57.589 Q 65.466 59.814 65.437 61.866 Q 63.701 61.838 62.625 61.838 Q 61.433 61.838 59.668 61.866 L 59.668 61.866 Z  M 44.706 61.977 Q 44.649 61.346 44.592 60.657 Q 44.534 59.953 44.405 58.734 L 44.29 57.7 Q 45.682 58.246 46.687 58.518 Q 47.691 58.777 48.538 58.777 Q 49.241 58.777 49.672 58.648 Q 50.117 58.518 50.318 58.274 Q 50.519 58.03 50.519 57.772 Q 50.519 57.542 50.361 57.327 Q 50.217 57.098 49.686 56.71 Q 48.51 55.849 47.605 55.146 Q 46.716 54.443 46.256 53.897 Q 45.811 53.352 45.567 52.72 Q 45.338 52.089 45.338 51.414 Q 45.338 50.223 46.012 49.19 Q 46.701 48.157 48.022 47.697 Q 49.356 47.224 51.265 47.224 Q 53.26 47.224 56.36 47.74 L 56.589 51.773 Q 54.853 51.084 53.246 51.084 Q 52.112 51.084 51.595 51.314 Q 51.093 51.544 51.093 52.017 Q 51.093 52.175 51.15 52.318 Q 51.208 52.462 51.351 52.62 Q 51.509 52.778 51.724 52.95 Q 51.954 53.108 52.815 53.711 Q 53.676 54.313 54.164 54.701 Q 54.968 55.332 55.384 55.878 Q 55.814 56.409 56.03 57.026 Q 56.259 57.629 56.259 58.303 Q 56.259 59.322 55.757 60.183 Q 55.269 61.03 54.264 61.604 Q 53.274 62.178 52.112 62.393 Q 50.949 62.623 49.715 62.623 Q 48.883 62.623 47.62 62.479 Q 46.371 62.336 44.706 61.977 L 44.706 61.977 Z  M 28.131 51.773 Q 28.404 50.352 28.476 49.821 Q 28.548 49.276 28.705 48.128 Q 32.839 47.224 35.809 47.224 Q 37.503 47.224 38.909 47.611 Q 40.316 47.984 41.105 48.831 Q 41.894 49.678 41.894 51.256 Q 41.894 52.06 41.679 54.873 Q 41.464 57.686 41.349 62.25 Q 39.943 62.221 38.551 62.221 Q 37.202 62.221 35.68 62.25 Q 35.881 60.671 36.125 55.734 Q 35.58 55.992 35.264 56.107 Q 34.963 56.222 34.188 56.452 Q 33.413 56.681 32.968 56.839 Q 32.537 56.997 32.207 57.241 Q 31.891 57.485 31.748 57.743 Q 31.619 58.002 31.619 58.317 Q 31.619 58.805 32.006 59.15 Q 32.394 59.494 33.241 59.494 Q 33.542 59.494 33.886 59.451 Q 34.231 59.394 34.834 59.193 Q 34.417 60.298 33.843 62.422 Q 32.609 62.623 31.504 62.623 Q 29.724 62.623 28.533 62.135 Q 27.356 61.633 26.711 60.528 Q 26.079 59.422 26.079 58.317 Q 26.079 57.643 26.309 56.997 Q 26.553 56.351 27.055 55.734 Q 27.557 55.117 28.232 54.686 Q 28.906 54.242 30.069 53.854 Q 31.246 53.467 33.04 53.122 Q 33.786 52.979 34.403 52.821 Q 35.034 52.649 35.293 52.534 Q 35.565 52.405 35.723 52.247 Q 35.896 52.074 35.967 51.902 Q 36.039 51.716 36.039 51.515 Q 36.039 50.969 35.58 50.682 Q 35.121 50.381 34.231 50.381 Q 31.762 50.381 28.131 51.773 L 28.131 51.773 Z  M 18.302 61.852 L 18.56 58.766 L 19.12 48.046 L 19.278 42.276 Q 21.273 42.305 22.277 42.305 Q 23.583 42.305 25.162 42.276 L 24.832 46.682 L 24.301 57.532 L 24.186 61.866 Q 22.651 61.838 21.416 61.838 L 18.302 61.852 L 18.302 61.852 Z  M 0 61.866 L 0.287 58.192 L 0.66 51.016 L 0.818 45.936 Q 0.832 45.118 0.832 44.3 Q 0.832 43.683 0.818 42.276 Q 2.712 42.319 3.861 42.319 Q 4.966 42.319 6.889 42.262 Q 8.812 42.19 10.147 42.19 Q 12.07 42.19 12.988 42.434 Q 13.921 42.678 14.667 43.209 Q 15.414 43.726 15.901 44.429 Q 16.389 45.132 16.633 46.037 Q 16.877 46.926 16.877 47.859 Q 16.877 49.782 15.945 51.375 Q 15.012 52.968 13.318 53.758 Q 11.625 54.547 9.515 54.547 Q 8.74 54.547 7.721 54.375 Q 7.606 53.715 7.291 52.409 Q 6.975 51.103 6.774 50.471 Q 7.405 50.6 8.094 50.6 Q 9.544 50.6 10.247 49.911 Q 10.965 49.208 10.965 48.204 Q 10.965 47.716 10.807 47.343 Q 10.649 46.955 10.304 46.711 Q 9.96 46.467 9.544 46.395 Q 9.128 46.324 8.597 46.324 Q 8.08 46.324 7.52 46.352 L 6.315 46.438 Q 6.128 49.208 6.028 52.595 Q 5.841 58.766 5.841 60.001 L 5.841 61.866 L 2.985 61.838 Q 2.382 61.838 0 61.866 Z  M 88.951 24.59 C 89.905 24.59 90.819 24.969 91.493 25.643 C 92.167 26.317 92.545 27.231 92.545 28.184 C 92.545 30.169 90.936 31.778 88.951 31.778 C 86.966 31.778 85.357 30.169 85.357 28.184 C 85.357 26.199 86.966 24.59 88.951 24.59 L 88.951 24.59 Z  M 112.876 12.896 C 106.03 0.876 91.083 -3.529 79.49 3.058 C 76.583 4.71 74.163 6.896 72.277 9.434 C 73.402 8.468 74.632 7.596 75.967 6.838 C 87.56 0.251 102.507 4.655 109.353 16.675 C 114.482 25.68 113.607 36.406 107.971 43.989 C 116.616 36.565 118.933 23.531 112.876 12.896 Z  M 81.908 32.325 C 84.494 36.877 90.145 38.548 94.531 36.057 C 95.63 35.432 96.546 34.605 97.26 33.644 C 96.834 34.01 96.369 34.34 95.864 34.627 C 91.478 37.118 85.827 35.447 83.241 30.895 C 81.303 27.484 81.636 23.424 83.769 20.554 C 80.498 23.363 79.619 28.297 81.908 32.325 L 81.908 32.325 Z  M 104.738 19.006 C 99.868 10.447 89.237 7.311 80.991 12.001 C 78.924 13.177 77.202 14.734 75.861 16.542 C 76.661 15.854 77.536 15.233 78.485 14.692 C 86.731 10.002 97.363 13.138 102.232 21.698 C 105.88 28.111 105.258 35.748 101.249 41.149 C 107.398 35.862 109.046 26.58 104.738 19.006 L 104.738 19.006 Z " fill-rule="evenodd" fill="rgb(255,255,255)"/></svg>