<?xml version="1.0" standalone="no"?><!-- Generator: Gravit.io --><svg xmlns="http://www.w3.org/2000/svg" xmlns:xlink="http://www.w3.org/1999/xlink" style="isolation:isolate" viewBox="0 0 160 65" width="160" height="65"><defs><clipPath id="_clipPath_irRbMzwVXotfeBaAWCoC7vKL8Gm4rpXM"><rect width="160" height="65"/></clipPath></defs><g clip-path="url(#_clipPath_irRbMzwVXotfeBaAWCoC7vKL8Gm4rpXM)"><g><path d=" M 91.521 16.375 C 87.326 9 78.166 6.298 71.063 10.339 C 69.281 11.353 67.798 12.694 66.642 14.251 C 67.332 13.658 68.086 13.123 68.904 12.658 C 76.008 8.617 85.167 11.319 89.362 18.693 C 92.505 24.218 91.969 30.799 88.515 35.451 C 93.813 30.896 95.233 22.9 91.521 16.375 L 91.521 16.375 Z " fill-rule="evenodd" fill="rgb(0,98,42)"/><path d=" M 71.852 27.849 C 74.08 31.771 78.949 33.211 82.727 31.064 C 83.675 30.526 84.464 29.813 85.079 28.986 C 84.712 29.301 84.311 29.585 83.876 29.832 C 80.098 31.978 75.229 30.539 73.001 26.617 C 71.331 23.679 71.618 20.18 73.456 17.708 C 70.638 20.128 69.88 24.379 71.852 27.849 L 71.852 27.849 Z " fill-rule="evenodd" fill="rgb(0,98,42)"/><path d=" M 98.532 11.11 C 92.634 0.755 79.757 -3.04 69.769 2.635 C 67.265 4.058 65.18 5.941 63.555 8.128 C 64.524 7.296 65.584 6.544 66.734 5.891 C 76.722 0.216 89.599 4.011 95.497 14.366 C 99.916 22.125 99.162 31.365 94.306 37.898 C 101.755 31.502 103.751 20.273 98.532 11.11 Z " fill-rule="evenodd" fill="rgb(0,98,42)"/><path d=" M 77.921 21.185 C 78.742 21.185 79.529 21.512 80.11 22.092 C 80.691 22.673 81.017 23.461 81.017 24.282 C 81.017 25.992 79.631 27.378 77.921 27.378 C 76.21 27.378 74.824 25.992 74.824 24.282 C 74.824 22.572 76.21 21.185 77.921 21.185 L 77.921 21.185 Z " fill-rule="evenodd" fill="rgb(0,98,42)"/><g><path d=" M 0 53.3 L 0.25 50.119 L 0.58 43.909 L 0.716 39.517 C 0.724 39.042 0.729 38.572 0.729 38.098 C 0.729 37.742 0.724 37.162 0.716 36.348 C 1.809 36.374 2.686 36.386 3.346 36.386 C 3.982 36.386 4.854 36.365 5.96 36.331 C 7.07 36.293 8.006 36.272 8.777 36.272 C 9.882 36.272 10.704 36.344 11.233 36.484 C 11.767 36.624 12.25 36.848 12.678 37.149 C 13.11 37.454 13.466 37.805 13.745 38.212 C 14.025 38.619 14.237 39.08 14.376 39.597 C 14.516 40.114 14.588 40.643 14.588 41.181 C 14.588 42.291 14.321 43.308 13.783 44.227 C 13.245 45.146 12.491 45.832 11.517 46.29 C 10.543 46.743 9.446 46.972 8.234 46.972 C 7.785 46.972 7.269 46.921 6.684 46.819 C 6.621 46.442 6.494 45.879 6.316 45.129 C 6.133 44.379 5.985 43.824 5.871 43.464 C 6.235 43.532 6.612 43.566 7.006 43.566 C 7.841 43.566 8.459 43.363 8.87 42.96 C 9.276 42.558 9.48 42.067 9.48 41.486 C 9.48 41.202 9.433 40.953 9.344 40.732 C 9.251 40.512 9.107 40.334 8.908 40.19 C 8.713 40.05 8.493 39.961 8.251 39.919 C 8.014 39.877 7.739 39.855 7.434 39.855 C 7.137 39.855 6.828 39.864 6.506 39.881 L 5.464 39.953 C 5.358 41.55 5.278 43.329 5.218 45.281 C 5.117 48.84 5.062 50.974 5.062 51.686 L 5.062 53.3 L 2.588 53.275 C 2.241 53.275 1.377 53.283 0 53.3 Z " fill-rule="evenodd" fill="rgb(0,98,42)"/><path d=" M 15.99 53.3 L 16.211 50.627 L 16.689 41.342 L 16.825 36.348 C 17.973 36.365 18.837 36.374 19.417 36.374 C 20.171 36.374 21.001 36.365 21.912 36.348 L 21.632 40.16 L 21.179 49.551 L 21.082 53.3 C 20.192 53.291 19.396 53.287 18.684 53.287 L 15.99 53.3 L 15.99 53.3 Z " fill-rule="evenodd" fill="rgb(0,98,42)"/><path d=" M 25.051 44.227 C 25.207 43.413 25.305 42.854 25.347 42.545 C 25.39 42.24 25.457 41.757 25.546 41.101 C 27.927 40.576 29.973 40.313 31.68 40.313 C 32.654 40.313 33.548 40.423 34.357 40.643 C 35.166 40.859 35.797 41.215 36.25 41.702 C 36.703 42.189 36.932 42.888 36.932 43.799 C 36.932 44.261 36.869 45.303 36.746 46.925 C 36.623 48.543 36.53 50.669 36.466 53.3 C 35.653 53.283 34.844 53.275 34.043 53.275 C 33.264 53.275 32.434 53.283 31.557 53.3 C 31.671 52.389 31.794 50.509 31.934 47.658 C 31.62 47.81 31.375 47.92 31.197 47.984 C 31.019 48.052 30.71 48.153 30.265 48.289 C 29.816 48.424 29.469 48.535 29.219 48.628 C 28.969 48.721 28.749 48.84 28.562 48.984 C 28.376 49.123 28.245 49.272 28.168 49.424 C 28.088 49.572 28.05 49.742 28.05 49.928 C 28.05 50.212 28.164 50.458 28.388 50.661 C 28.613 50.86 28.969 50.962 29.46 50.962 C 29.634 50.962 29.82 50.949 30.024 50.919 C 30.223 50.89 30.498 50.822 30.845 50.708 C 30.604 51.334 30.316 52.249 29.981 53.452 C 29.27 53.571 28.596 53.63 27.961 53.63 C 26.936 53.63 26.08 53.486 25.398 53.202 C 24.716 52.914 24.191 52.453 23.822 51.817 C 23.454 51.178 23.272 50.542 23.272 49.903 C 23.272 49.513 23.339 49.132 23.475 48.759 C 23.611 48.386 23.822 48.022 24.115 47.666 C 24.403 47.31 24.741 47.005 25.127 46.756 C 25.517 46.501 26.046 46.264 26.715 46.04 C 27.389 45.815 28.24 45.608 29.274 45.409 C 29.702 45.324 30.096 45.235 30.456 45.142 C 30.811 45.044 31.07 44.964 31.222 44.892 C 31.375 44.82 31.498 44.739 31.591 44.646 C 31.688 44.549 31.756 44.451 31.794 44.35 C 31.836 44.244 31.858 44.138 31.858 44.024 C 31.858 43.706 31.726 43.46 31.464 43.291 C 31.201 43.117 30.811 43.032 30.303 43.032 C 28.884 43.032 27.135 43.43 25.051 44.227 L 25.051 44.227 Z " fill-rule="evenodd" fill="rgb(0,98,42)"/><path d=" M 39.169 53.071 C 39.135 52.707 39.105 52.321 39.071 51.919 C 39.037 51.517 38.986 50.962 38.91 50.259 L 38.813 49.361 C 39.613 49.678 40.3 49.915 40.876 50.068 C 41.452 50.225 41.985 50.301 42.468 50.301 C 42.875 50.301 43.201 50.263 43.451 50.191 C 43.705 50.115 43.887 50.009 44.002 49.869 C 44.116 49.729 44.175 49.585 44.175 49.437 C 44.175 49.301 44.133 49.174 44.044 49.043 C 43.959 48.916 43.764 48.742 43.459 48.518 C 42.786 48.022 42.193 47.569 41.68 47.162 C 41.168 46.76 40.782 46.4 40.524 46.082 C 40.266 45.769 40.067 45.43 39.931 45.066 C 39.796 44.701 39.728 44.324 39.728 43.939 C 39.728 43.248 39.923 42.609 40.316 42.011 C 40.706 41.419 41.286 40.987 42.049 40.715 C 42.811 40.449 43.743 40.313 44.84 40.313 C 45.988 40.313 47.45 40.465 49.233 40.77 L 49.436 44.227 C 48.441 43.837 47.483 43.642 46.56 43.642 C 45.912 43.642 45.438 43.71 45.145 43.841 C 44.853 43.977 44.709 44.18 44.709 44.46 C 44.709 44.549 44.726 44.638 44.76 44.718 C 44.79 44.803 44.853 44.888 44.938 44.981 C 45.022 45.07 45.133 45.163 45.26 45.26 C 45.387 45.354 45.696 45.574 46.192 45.921 C 46.687 46.268 47.073 46.556 47.352 46.781 C 47.814 47.145 48.165 47.48 48.411 47.789 C 48.652 48.103 48.839 48.433 48.966 48.785 C 49.093 49.136 49.157 49.505 49.157 49.894 C 49.157 50.483 49.013 51.021 48.729 51.512 C 48.445 52.008 48.013 52.419 47.437 52.749 C 46.865 53.08 46.242 53.308 45.569 53.44 C 44.9 53.567 44.209 53.63 43.498 53.63 C 43.019 53.63 42.417 53.588 41.693 53.507 C 40.969 53.423 40.13 53.279 39.169 53.071 L 39.169 53.071 Z " fill-rule="evenodd" fill="rgb(0,98,42)"/><path d=" M 51.567 53.3 L 51.923 47.315 L 52.126 42.63 L 52.151 40.618 C 53.062 40.635 53.863 40.643 54.557 40.643 C 55.345 40.643 56.108 40.635 56.853 40.618 L 56.764 42.287 C 57.018 41.956 57.239 41.698 57.416 41.524 C 57.59 41.347 57.81 41.177 58.065 41.012 C 58.323 40.851 58.585 40.724 58.861 40.631 C 59.132 40.533 59.441 40.457 59.78 40.398 C 60.119 40.343 60.475 40.313 60.843 40.313 C 61.267 40.313 61.656 40.347 62.012 40.419 C 62.368 40.487 62.673 40.576 62.931 40.686 C 63.186 40.792 63.41 40.914 63.601 41.058 C 63.791 41.198 63.956 41.355 64.101 41.533 C 64.249 41.711 64.414 41.969 64.605 42.308 C 64.969 41.783 65.35 41.38 65.757 41.105 C 66.159 40.834 66.621 40.635 67.138 40.504 C 67.654 40.377 68.184 40.313 68.73 40.313 C 69.446 40.313 70.124 40.415 70.759 40.622 C 71.395 40.83 71.92 41.186 72.326 41.698 C 72.737 42.206 72.941 42.863 72.941 43.676 C 72.941 44.053 72.915 44.629 72.86 45.4 C 72.809 46.167 72.737 47.488 72.644 49.361 C 72.551 51.233 72.5 52.546 72.492 53.3 C 71.729 53.283 70.992 53.275 70.28 53.275 C 69.412 53.275 68.506 53.283 67.553 53.3 C 67.633 52.249 67.714 50.932 67.794 49.348 C 67.879 47.764 67.917 46.667 67.917 46.057 C 67.917 45.523 67.858 45.121 67.735 44.858 C 67.612 44.595 67.455 44.417 67.265 44.32 C 67.074 44.223 66.862 44.176 66.633 44.176 C 66.392 44.176 66.18 44.223 65.998 44.311 C 65.803 44.413 65.634 44.566 65.486 44.773 C 65.291 45.049 65.13 45.396 65.011 45.811 C 64.91 46.137 64.833 46.628 64.778 47.298 C 64.719 47.975 64.672 48.869 64.638 49.975 L 64.537 53.3 C 63.647 53.283 62.843 53.275 62.131 53.275 C 61.398 53.275 60.538 53.283 59.547 53.3 C 59.623 52.563 59.708 51.326 59.805 49.589 C 59.907 47.853 59.954 46.692 59.954 46.107 C 59.954 45.612 59.907 45.239 59.805 44.994 C 59.708 44.744 59.568 44.549 59.386 44.4 C 59.208 44.252 58.971 44.176 58.67 44.176 C 58.348 44.176 58.065 44.269 57.823 44.46 C 57.582 44.65 57.374 44.921 57.205 45.277 C 57.035 45.633 56.912 46.124 56.845 46.747 C 56.773 47.37 56.709 48.323 56.658 49.602 C 56.603 50.885 56.569 52.118 56.552 53.3 C 55.553 53.283 54.744 53.275 54.121 53.275 C 53.435 53.275 52.583 53.283 51.567 53.3 Z " fill-rule="evenodd" fill="rgb(0,98,42)"/><path d=" M 76.401 44.227 C 76.558 43.413 76.656 42.854 76.698 42.545 C 76.74 42.24 76.808 41.757 76.897 41.101 C 79.278 40.576 81.323 40.313 83.03 40.313 C 84.005 40.313 84.898 40.423 85.708 40.643 C 86.517 40.859 87.148 41.215 87.601 41.702 C 88.054 42.189 88.283 42.888 88.283 43.799 C 88.283 44.261 88.219 45.303 88.096 46.925 C 87.974 48.543 87.88 50.669 87.817 53.3 C 87.004 53.283 86.195 53.275 85.394 53.275 C 84.615 53.275 83.784 53.283 82.908 53.3 C 83.022 52.389 83.145 50.509 83.285 47.658 C 82.971 47.81 82.726 47.92 82.548 47.984 C 82.37 48.052 82.061 48.153 81.616 48.289 C 81.167 48.424 80.819 48.535 80.57 48.628 C 80.32 48.721 80.099 48.84 79.913 48.984 C 79.727 49.123 79.595 49.272 79.519 49.424 C 79.438 49.572 79.4 49.742 79.4 49.928 C 79.4 50.212 79.515 50.458 79.739 50.661 C 79.964 50.86 80.32 50.962 80.811 50.962 C 80.985 50.962 81.171 50.949 81.374 50.919 C 81.573 50.89 81.849 50.822 82.196 50.708 C 81.955 51.334 81.666 52.249 81.332 53.452 C 80.62 53.571 79.947 53.63 79.312 53.63 C 78.286 53.63 77.431 53.486 76.749 53.202 C 76.067 52.914 75.542 52.453 75.173 51.817 C 74.805 51.178 74.622 50.542 74.622 49.903 C 74.622 49.513 74.69 49.132 74.826 48.759 C 74.961 48.386 75.173 48.022 75.465 47.666 C 75.753 47.31 76.092 47.005 76.478 46.756 C 76.867 46.501 77.397 46.264 78.066 46.04 C 78.74 45.815 79.591 45.608 80.625 45.409 C 81.052 45.324 81.446 45.235 81.806 45.142 C 82.162 45.044 82.421 44.964 82.573 44.892 C 82.726 44.82 82.848 44.739 82.942 44.646 C 83.039 44.549 83.107 44.451 83.145 44.35 C 83.187 44.244 83.208 44.138 83.208 44.024 C 83.208 43.706 83.077 43.46 82.814 43.291 C 82.552 43.117 82.162 43.032 81.654 43.032 C 80.235 43.032 78.485 43.43 76.401 44.227 L 76.401 44.227 Z " fill-rule="evenodd" fill="rgb(0,98,42)"/><path d=" M 94.035 53.3 L 92.722 49.225 L 89.757 40.618 C 90.702 40.635 91.574 40.643 92.387 40.643 C 93.23 40.643 94.022 40.635 94.768 40.618 C 94.908 41.19 95.183 42.189 95.598 43.617 C 96.013 45.044 96.467 46.747 96.962 48.717 L 97.284 47.687 C 97.335 47.56 97.53 47.031 97.869 46.095 L 99.842 40.618 C 100.736 40.635 101.579 40.643 102.371 40.643 C 103.193 40.643 104.044 40.635 104.93 40.618 L 103.218 44.307 L 100.029 51.635 L 99.347 53.3 C 98.368 53.283 97.509 53.275 96.763 53.275 C 95.954 53.275 95.043 53.283 94.035 53.3 Z " fill-rule="evenodd" fill="rgb(0,98,42)"/><path d=" M 127.507 53.3 C 126.621 53.283 125.884 53.275 125.296 53.275 C 124.63 53.275 123.826 53.283 122.881 53.3 L 122.953 51.733 C 122.631 52.046 122.347 52.3 122.11 52.495 C 121.869 52.69 121.56 52.876 121.183 53.058 C 120.806 53.241 120.403 53.38 119.967 53.482 C 119.535 53.579 119.086 53.63 118.62 53.63 C 117.828 53.63 117.082 53.486 116.392 53.194 C 115.702 52.906 115.113 52.495 114.626 51.961 C 114.138 51.428 113.774 50.792 113.533 50.064 C 113.291 49.331 113.173 48.569 113.173 47.785 C 113.173 46.667 113.393 45.574 113.834 44.506 C 114.27 43.439 114.846 42.6 115.553 41.99 C 116.265 41.376 117.065 40.944 117.955 40.69 C 118.844 40.44 119.81 40.313 120.848 40.313 C 121.534 40.313 122.339 40.372 123.258 40.491 C 123.322 39.504 123.36 38.123 123.381 36.348 C 124.398 36.365 125.228 36.374 125.871 36.374 C 126.706 36.374 127.545 36.365 128.396 36.348 C 128.163 38.805 127.956 41.808 127.778 45.354 C 127.6 48.895 127.507 51.546 127.507 53.3 L 127.507 53.3 Z  M 123.089 43.719 C 122.648 43.617 122.233 43.566 121.843 43.566 C 121.034 43.566 120.348 43.723 119.785 44.032 C 119.221 44.341 118.785 44.824 118.48 45.485 C 118.179 46.141 118.027 46.79 118.027 47.425 C 118.027 47.908 118.112 48.34 118.281 48.721 C 118.455 49.106 118.713 49.411 119.069 49.636 C 119.42 49.86 119.814 49.971 120.246 49.971 C 120.704 49.971 121.119 49.843 121.5 49.585 C 121.877 49.331 122.182 48.954 122.419 48.458 C 122.657 47.963 122.822 47.37 122.907 46.688 C 122.996 46.006 123.055 45.015 123.089 43.719 L 123.089 43.719 Z " fill-rule="evenodd" fill="rgb(0,98,42)"/><path d=" M 142.594 49.564 C 142.489 50.06 142.285 51.254 141.985 53.147 C 141.023 53.342 140.214 53.469 139.557 53.533 C 138.901 53.596 138.24 53.63 137.567 53.63 C 136.58 53.63 135.669 53.562 134.843 53.427 C 134.013 53.291 133.297 53.046 132.695 52.698 C 132.094 52.355 131.59 51.923 131.183 51.407 C 130.777 50.89 130.467 50.275 130.256 49.564 C 130.044 48.852 129.938 48.12 129.938 47.37 C 129.938 46.311 130.15 45.273 130.573 44.261 C 130.993 43.248 131.539 42.456 132.204 41.889 C 132.873 41.317 133.64 40.91 134.508 40.673 C 135.377 40.432 136.27 40.313 137.181 40.313 C 138.122 40.313 139.024 40.423 139.879 40.643 C 140.739 40.859 141.464 41.245 142.061 41.787 C 142.658 42.333 143.082 42.948 143.336 43.634 C 143.586 44.32 143.713 45.061 143.713 45.853 C 143.713 46.328 143.662 46.849 143.56 47.429 L 134.83 47.442 C 134.822 47.573 134.818 47.692 134.818 47.802 C 134.818 48.691 135.14 49.348 135.779 49.771 C 136.419 50.191 137.198 50.403 138.122 50.403 C 138.668 50.403 139.295 50.339 139.998 50.212 C 140.697 50.085 141.565 49.869 142.594 49.564 L 142.594 49.564 Z  M 134.928 45.548 L 139.036 45.548 C 139.045 45.409 139.049 45.29 139.049 45.188 C 139.049 44.761 138.973 44.392 138.82 44.087 C 138.664 43.782 138.443 43.562 138.16 43.422 C 137.872 43.282 137.55 43.21 137.194 43.21 C 136.944 43.21 136.707 43.248 136.474 43.329 C 136.241 43.405 136.029 43.524 135.843 43.676 C 135.656 43.829 135.5 44.002 135.377 44.201 C 135.254 44.396 135.161 44.591 135.101 44.773 C 135.046 44.96 134.987 45.218 134.928 45.548 L 134.928 45.548 Z " fill-rule="evenodd" fill="rgb(0,98,42)"/><path d=" M 152.718 40.313 C 153.747 40.313 154.734 40.47 155.683 40.783 C 156.632 41.101 157.433 41.55 158.085 42.143 C 158.741 42.736 159.224 43.426 159.534 44.218 C 159.843 45.006 160 45.858 160 46.768 C 160 47.654 159.86 48.492 159.584 49.293 C 159.305 50.089 158.835 50.839 158.174 51.538 C 157.509 52.237 156.666 52.762 155.645 53.109 C 154.624 53.457 153.54 53.63 152.396 53.63 C 151.346 53.63 150.333 53.478 149.363 53.173 C 148.398 52.864 147.584 52.419 146.936 51.83 C 146.284 51.241 145.797 50.538 145.471 49.721 C 145.145 48.903 144.979 48.039 144.979 47.141 C 144.979 46.239 145.14 45.375 145.458 44.557 C 145.776 43.74 146.28 43.003 146.974 42.35 C 147.665 41.694 148.521 41.194 149.537 40.842 C 150.558 40.491 151.617 40.313 152.718 40.313 Z  M 152.634 43.973 C 152.104 43.973 151.63 44.108 151.215 44.379 C 150.804 44.655 150.49 45.053 150.278 45.574 C 150.067 46.099 149.961 46.671 149.961 47.289 C 149.961 48.196 150.189 48.89 150.643 49.373 C 151.1 49.856 151.672 50.098 152.358 50.098 C 152.879 50.098 153.349 49.958 153.764 49.683 C 154.175 49.407 154.489 48.996 154.701 48.458 C 154.912 47.916 155.018 47.34 155.018 46.717 C 155.018 46.209 154.934 45.747 154.768 45.332 C 154.603 44.921 154.332 44.591 153.955 44.345 C 153.578 44.096 153.138 43.973 152.634 43.973 L 152.634 43.973 Z " fill-rule="evenodd" fill="rgb(0,98,42)"/><path d=" M 106.12 40.671 L 111.249 40.594 L 110.864 53.3 L 105.541 53.3 L 106.12 40.671 L 106.12 40.671 Z " fill-rule="evenodd" fill="rgb(0,98,42)"/></g><path d=" M 92.661 63.906 C 92.636 63.501 92.606 63.177 92.573 62.934 C 92.793 63.029 92.991 63.094 93.163 63.13 C 93.335 63.167 93.486 63.186 93.616 63.186 C 93.788 63.186 93.924 63.161 94.025 63.113 C 94.127 63.064 94.178 62.993 94.178 62.897 C 94.178 62.865 94.173 62.834 94.163 62.804 C 94.153 62.774 94.135 62.741 94.107 62.704 C 94.079 62.667 94.04 62.627 93.988 62.583 L 93.431 62.114 C 93.301 62.008 93.21 61.93 93.159 61.883 C 93.055 61.785 92.972 61.694 92.914 61.611 C 92.856 61.527 92.814 61.442 92.787 61.355 C 92.76 61.268 92.747 61.177 92.747 61.079 C 92.747 60.963 92.768 60.849 92.81 60.738 C 92.852 60.626 92.915 60.522 93 60.424 C 93.085 60.328 93.196 60.244 93.336 60.174 C 93.475 60.103 93.624 60.055 93.783 60.029 C 93.942 60.003 94.106 59.99 94.275 59.99 C 94.607 59.99 94.967 60.027 95.358 60.102 C 95.363 60.233 95.37 60.353 95.378 60.462 C 95.386 60.572 95.405 60.764 95.434 61.038 C 95.253 60.968 95.087 60.919 94.937 60.892 C 94.788 60.864 94.659 60.851 94.55 60.851 C 94.397 60.851 94.269 60.878 94.168 60.934 C 94.067 60.989 94.015 61.057 94.015 61.139 C 94.015 61.177 94.024 61.215 94.04 61.251 C 94.054 61.287 94.085 61.33 94.128 61.378 C 94.171 61.426 94.228 61.48 94.299 61.538 C 94.37 61.596 94.481 61.683 94.634 61.797 L 94.846 61.96 C 94.909 62.009 94.977 62.069 95.05 62.139 C 95.123 62.21 95.186 62.28 95.239 62.348 C 95.293 62.417 95.333 62.48 95.362 62.537 C 95.39 62.594 95.412 62.651 95.425 62.71 C 95.439 62.768 95.446 62.831 95.446 62.897 C 95.446 63.069 95.404 63.232 95.32 63.387 C 95.236 63.543 95.115 63.671 94.961 63.77 C 94.806 63.87 94.636 63.94 94.45 63.98 C 94.265 64.02 94.07 64.04 93.864 64.04 C 93.547 64.04 93.145 63.995 92.661 63.906 L 92.661 63.906 Z  M 96.015 63.964 C 96.064 63.473 96.099 63.061 96.122 62.728 C 96.145 62.397 96.167 61.956 96.19 61.406 C 96.213 60.857 96.224 60.492 96.224 60.312 L 96.221 60.061 C 96.682 60.065 97.241 60.067 97.897 60.067 C 98.501 60.067 99.034 60.065 99.496 60.061 L 99.49 60.155 C 99.488 60.178 99.483 60.261 99.476 60.404 L 99.458 60.715 C 99.454 60.782 99.452 60.849 99.452 60.918 C 99.075 60.902 98.758 60.895 98.502 60.895 C 98.22 60.895 98.03 60.895 97.932 60.897 C 97.833 60.898 97.679 60.902 97.47 60.909 L 97.436 61.565 C 97.667 61.571 97.936 61.574 98.242 61.574 C 98.353 61.574 98.644 61.567 99.117 61.553 C 99.097 61.797 99.079 62.088 99.061 62.425 C 98.722 62.421 98.462 62.419 98.279 62.419 C 98.009 62.419 97.706 62.425 97.372 62.437 L 97.335 63.133 L 97.672 63.133 C 97.772 63.133 97.979 63.13 98.291 63.125 L 98.9 63.11 C 98.99 63.108 99.14 63.1 99.351 63.087 C 99.328 63.369 99.308 63.662 99.292 63.964 C 98.815 63.96 98.293 63.959 97.723 63.959 L 96.432 63.961 L 96.015 63.964 L 96.015 63.964 Z  M 102.339 61.693 C 102.607 61.697 102.862 61.699 103.105 61.699 C 103.519 61.699 103.843 61.698 104.078 61.693 C 104.053 61.954 104.028 62.323 104.002 62.8 C 103.976 63.278 103.961 63.638 103.955 63.882 C 103.729 63.922 103.543 63.952 103.395 63.97 C 103.247 63.989 103.07 64.004 102.862 64.019 C 102.655 64.033 102.47 64.04 102.307 64.04 C 102.041 64.04 101.78 64.02 101.524 63.978 C 101.267 63.936 101.038 63.868 100.835 63.775 C 100.632 63.681 100.464 63.555 100.328 63.394 C 100.193 63.235 100.089 63.044 100.016 62.826 C 99.943 62.606 99.906 62.38 99.906 62.145 C 99.906 61.759 100.005 61.4 100.202 61.068 C 100.4 60.737 100.684 60.474 101.055 60.28 C 101.426 60.087 101.905 59.99 102.492 59.99 C 102.92 59.99 103.394 60.041 103.915 60.143 C 103.915 60.42 103.927 60.728 103.951 61.067 C 103.81 61.021 103.697 60.987 103.61 60.963 C 103.523 60.939 103.42 60.917 103.304 60.898 C 103.188 60.877 103.077 60.862 102.973 60.854 C 102.867 60.844 102.774 60.839 102.692 60.839 C 102.477 60.839 102.273 60.869 102.081 60.929 C 101.89 60.989 101.724 61.081 101.587 61.206 C 101.449 61.33 101.345 61.479 101.277 61.651 C 101.208 61.825 101.174 62.008 101.174 62.2 C 101.174 62.395 101.213 62.569 101.291 62.722 C 101.371 62.876 101.495 62.992 101.665 63.072 C 101.835 63.152 102.026 63.192 102.236 63.192 C 102.41 63.192 102.602 63.166 102.809 63.116 L 102.839 62.507 C 102.713 62.503 102.638 62.501 102.615 62.501 L 102.304 62.504 L 102.324 62.152 C 102.326 62.114 102.329 62.059 102.333 61.987 C 102.337 61.916 102.339 61.818 102.339 61.694 L 102.339 61.693 Z  M 104.847 60.061 C 105.152 60.065 105.367 60.067 105.492 60.067 C 105.649 60.067 105.857 60.065 106.118 60.061 L 106.03 61.277 C 106.012 61.505 105.998 61.72 105.99 61.921 C 105.981 62.121 105.976 62.259 105.976 62.335 C 105.976 62.481 105.987 62.602 106.009 62.699 C 106.03 62.796 106.069 62.879 106.127 62.946 C 106.184 63.014 106.263 63.065 106.364 63.099 C 106.465 63.133 106.57 63.151 106.681 63.151 C 106.775 63.151 106.863 63.138 106.945 63.114 C 107.01 63.093 107.067 63.065 107.119 63.028 C 107.164 62.994 107.204 62.955 107.237 62.909 C 107.278 62.854 107.314 62.786 107.346 62.704 C 107.377 62.627 107.4 62.527 107.416 62.404 C 107.433 62.28 107.457 61.996 107.485 61.553 C 107.511 61.176 107.53 60.83 107.543 60.517 C 107.555 60.213 107.565 60.061 107.575 60.061 C 107.871 60.061 108.105 60.061 108.275 60.061 L 108.871 60.061 L 108.731 62.092 C 108.729 62.13 108.727 62.162 108.727 62.186 C 108.719 62.583 108.694 62.863 108.652 63.026 C 108.61 63.189 108.54 63.331 108.442 63.451 C 108.344 63.571 108.201 63.679 108.013 63.776 C 107.825 63.871 107.611 63.94 107.373 63.98 C 107.133 64.02 106.892 64.04 106.646 64.04 C 106.427 64.04 106.216 64.025 106.012 63.994 C 105.824 63.964 105.654 63.919 105.503 63.862 C 105.353 63.803 105.222 63.735 105.11 63.657 C 105.008 63.585 104.93 63.511 104.875 63.435 C 104.82 63.359 104.777 63.27 104.746 63.164 C 104.711 63.046 104.693 62.92 104.693 62.784 C 104.693 62.738 104.695 62.67 104.699 62.577 C 104.703 62.485 104.711 62.351 104.725 62.177 L 104.763 61.72 C 104.772 61.6 104.783 61.423 104.794 61.191 L 104.847 60.061 L 104.847 60.061 Z  M 109.342 63.964 C 109.38 63.629 109.41 63.326 109.432 63.058 C 109.454 62.789 109.473 62.477 109.489 62.123 C 109.506 61.768 109.518 61.394 109.526 61 C 109.534 60.606 109.538 60.293 109.538 60.061 C 109.783 60.067 109.98 60.069 110.13 60.069 C 110.287 60.069 110.478 60.065 110.702 60.057 C 110.928 60.048 111.146 60.043 111.36 60.043 C 111.61 60.043 111.832 60.053 112.029 60.072 C 112.175 60.085 112.308 60.113 112.429 60.155 C 112.549 60.197 112.65 60.248 112.732 60.307 C 112.814 60.368 112.884 60.435 112.938 60.509 C 112.993 60.583 113.035 60.67 113.066 60.771 C 113.096 60.87 113.111 60.978 113.111 61.092 C 113.111 61.219 113.094 61.339 113.061 61.451 C 113.028 61.562 112.976 61.667 112.904 61.765 C 112.832 61.863 112.742 61.948 112.634 62.019 C 112.525 62.09 112.373 62.164 112.177 62.238 L 112.33 62.602 C 112.373 62.702 112.419 62.805 112.468 62.911 L 112.861 63.75 C 112.879 63.786 112.91 63.857 112.955 63.964 C 112.631 63.96 112.414 63.958 112.302 63.958 C 112.161 63.958 111.931 63.96 111.609 63.964 C 111.578 63.865 111.521 63.68 111.439 63.411 C 111.406 63.299 111.378 63.211 111.354 63.151 C 111.308 63.015 111.237 62.825 111.146 62.58 L 110.844 61.77 C 110.95 61.789 111.053 61.799 111.155 61.799 C 111.298 61.799 111.427 61.778 111.543 61.736 C 111.659 61.694 111.747 61.63 111.807 61.542 C 111.867 61.455 111.897 61.364 111.897 61.266 C 111.897 61.185 111.875 61.113 111.83 61.052 C 111.784 60.99 111.713 60.944 111.617 60.914 C 111.52 60.884 111.371 60.868 111.169 60.868 C 111.101 60.868 111.03 60.869 110.957 60.872 C 110.884 60.875 110.799 60.878 110.7 60.88 C 110.674 61.27 110.652 61.747 110.632 62.309 C 110.612 62.871 110.599 63.423 110.593 63.964 C 110.266 63.96 110.054 63.958 109.956 63.958 C 109.843 63.958 109.637 63.96 109.342 63.964 L 109.342 63.964 Z  M 113.031 63.964 L 113.274 63.553 L 114.791 60.767 L 114.952 60.456 C 115 60.364 115.065 60.232 115.149 60.061 C 115.493 60.065 115.745 60.067 115.903 60.067 C 116.179 60.067 116.434 60.065 116.67 60.061 L 117.098 61.254 L 117.97 63.547 L 118.141 63.964 C 117.802 63.96 117.597 63.958 117.524 63.958 C 117.36 63.958 117.118 63.96 116.799 63.964 C 116.713 63.649 116.589 63.278 116.425 62.852 L 114.948 62.852 C 114.778 63.189 114.603 63.559 114.421 63.964 C 114.057 63.96 113.833 63.958 113.751 63.958 C 113.602 63.958 113.363 63.96 113.031 63.964 Z  M 115.302 62.021 L 116.214 62.021 C 115.987 61.349 115.862 60.978 115.84 60.91 C 115.712 61.19 115.603 61.419 115.513 61.599 L 115.302 62.021 Z  M 118.453 63.964 L 118.511 63.363 L 118.626 61.328 L 118.658 60.506 L 118.658 60.061 C 118.961 60.065 119.23 60.067 119.462 60.067 C 119.628 60.067 119.863 60.065 120.164 60.061 L 121.425 62.282 L 121.599 62.607 C 121.619 62.287 121.639 61.838 121.66 61.259 C 121.681 60.682 121.691 60.282 121.691 60.061 C 121.933 60.065 122.126 60.067 122.272 60.067 C 122.338 60.067 122.53 60.065 122.848 60.061 L 122.779 60.913 L 122.648 63.28 L 122.631 63.964 C 122.376 63.96 122.138 63.958 121.916 63.958 C 121.731 63.958 121.477 63.96 121.151 63.964 C 121.049 63.777 120.974 63.641 120.925 63.557 L 120.432 62.742 C 120.269 62.475 120.119 62.219 119.982 61.975 C 119.892 61.82 119.8 61.65 119.704 61.465 L 119.643 62.822 L 119.615 63.964 C 119.372 63.96 119.187 63.958 119.059 63.958 C 118.951 63.958 118.75 63.96 118.453 63.964 L 118.453 63.964 Z  M 126.856 63.016 C 126.833 63.127 126.805 63.283 126.772 63.482 C 126.74 63.682 126.718 63.837 126.706 63.947 C 126.287 64.009 125.913 64.04 125.584 64.04 C 125.266 64.04 124.971 64.001 124.698 63.924 C 124.425 63.847 124.174 63.72 123.946 63.545 C 123.717 63.368 123.554 63.16 123.457 62.922 C 123.359 62.684 123.309 62.418 123.309 62.123 C 123.309 61.777 123.376 61.467 123.508 61.192 C 123.64 60.917 123.83 60.687 124.078 60.503 C 124.326 60.319 124.598 60.188 124.894 60.109 C 125.189 60.03 125.496 59.99 125.81 59.99 C 126.101 59.99 126.46 60.027 126.886 60.102 L 126.892 60.341 C 126.895 60.445 126.901 60.559 126.908 60.685 L 126.928 61.009 C 126.699 60.956 126.514 60.921 126.371 60.902 C 126.229 60.884 126.097 60.874 125.976 60.874 C 125.71 60.874 125.473 60.926 125.26 61.028 C 125.049 61.132 124.881 61.281 124.76 61.477 C 124.639 61.673 124.578 61.89 124.578 62.128 C 124.578 62.345 124.629 62.531 124.731 62.687 C 124.832 62.842 124.971 62.962 125.144 63.047 C 125.317 63.132 125.532 63.174 125.786 63.174 C 125.926 63.174 126.077 63.163 126.24 63.142 C 126.404 63.12 126.61 63.079 126.856 63.016 Z  M 126.135 64.201 C 126.031 64.395 125.956 64.54 125.909 64.633 L 125.726 65 C 125.438 64.994 125.243 64.991 125.141 64.991 C 125.089 64.991 124.89 64.994 124.548 65 C 124.838 64.624 125.04 64.352 125.155 64.187 C 125.284 64.198 125.38 64.205 125.443 64.207 C 125.505 64.209 125.598 64.21 125.721 64.21 C 125.803 64.21 125.942 64.207 126.135 64.201 L 126.135 64.201 Z  M 126.888 63.964 L 127.132 63.553 L 128.649 60.767 L 128.81 60.456 C 128.857 60.364 128.922 60.232 129.006 60.061 C 129.351 60.065 129.603 60.067 129.761 60.067 C 130.036 60.067 130.292 60.065 130.527 60.061 L 130.955 61.254 L 131.828 63.547 L 131.998 63.964 C 131.659 63.96 131.454 63.958 131.382 63.958 C 131.218 63.958 130.975 63.96 130.657 63.964 C 130.57 63.649 130.446 63.278 130.283 62.852 L 128.805 62.852 C 128.636 63.189 128.46 63.559 128.279 63.964 C 127.914 63.96 127.691 63.958 127.609 63.958 C 127.459 63.958 127.22 63.96 126.888 63.964 Z  M 129.16 62.021 L 130.071 62.021 C 129.844 61.349 129.72 60.978 129.698 60.91 C 129.569 61.19 129.46 61.419 129.37 61.599 L 129.16 62.021 Z  M 133.82 63.964 C 133.864 63.529 133.893 63.182 133.909 62.921 C 133.933 62.531 133.957 62.028 133.981 61.411 C 133.998 60.938 134.007 60.599 134.007 60.395 L 134.007 60.061 C 134.235 60.067 134.433 60.069 134.599 60.069 C 134.759 60.069 134.969 60.065 135.229 60.057 C 135.489 60.048 135.733 60.043 135.962 60.043 C 136.223 60.043 136.453 60.059 136.65 60.089 C 136.847 60.12 137.031 60.183 137.202 60.278 C 137.372 60.374 137.516 60.499 137.631 60.653 C 137.746 60.807 137.834 60.987 137.894 61.194 C 137.955 61.402 137.986 61.614 137.986 61.834 C 137.986 62.049 137.962 62.256 137.915 62.455 C 137.868 62.655 137.803 62.835 137.719 62.995 C 137.635 63.155 137.537 63.292 137.424 63.408 C 137.311 63.523 137.183 63.622 137.039 63.704 C 136.931 63.765 136.822 63.813 136.713 63.847 C 136.604 63.881 136.455 63.909 136.264 63.93 C 136.054 63.952 135.814 63.964 135.547 63.964 L 134.362 63.955 C 134.25 63.955 134.07 63.958 133.82 63.964 L 133.82 63.964 Z  M 135.088 63.104 C 135.195 63.112 135.307 63.116 135.425 63.116 C 135.624 63.116 135.802 63.098 135.959 63.064 C 136.115 63.03 136.251 62.957 136.369 62.844 C 136.488 62.731 136.576 62.587 136.632 62.411 C 136.689 62.235 136.717 62.054 136.717 61.869 C 136.717 61.643 136.675 61.451 136.591 61.295 C 136.508 61.14 136.396 61.032 136.256 60.972 C 136.117 60.91 135.928 60.88 135.687 60.88 C 135.547 60.88 135.382 60.886 135.19 60.898 L 135.088 63.104 L 135.088 63.104 Z  M 138.476 63.964 C 138.589 62.433 138.646 61.255 138.646 60.429 L 138.643 60.061 C 138.985 60.065 139.214 60.067 139.329 60.067 C 139.382 60.067 139.593 60.065 139.96 60.061 C 139.924 60.49 139.896 60.896 139.874 61.279 C 139.846 61.812 139.826 62.312 139.814 62.776 C 139.802 63.24 139.796 63.636 139.796 63.964 L 139.196 63.958 C 139.079 63.958 138.838 63.96 138.475 63.964 L 138.476 63.964 Z  M 142.874 61.693 C 143.141 61.697 143.397 61.699 143.639 61.699 C 144.053 61.699 144.378 61.698 144.612 61.693 C 144.587 61.954 144.562 62.323 144.536 62.8 C 144.511 63.278 144.495 63.638 144.489 63.882 C 144.264 63.922 144.077 63.952 143.93 63.97 C 143.782 63.989 143.604 64.004 143.397 64.019 C 143.19 64.033 143.004 64.04 142.842 64.04 C 142.575 64.04 142.315 64.02 142.058 63.978 C 141.802 63.936 141.572 63.868 141.369 63.775 C 141.167 63.681 140.998 63.555 140.863 63.394 C 140.728 63.235 140.624 63.044 140.551 62.826 C 140.477 62.606 140.44 62.38 140.44 62.145 C 140.44 61.759 140.539 61.4 140.737 61.068 C 140.934 60.737 141.219 60.474 141.589 60.28 C 141.96 60.087 142.439 59.99 143.026 59.99 C 143.455 59.99 143.929 60.041 144.45 60.143 C 144.45 60.42 144.462 60.728 144.486 61.067 C 144.345 61.021 144.232 60.987 144.144 60.963 C 144.057 60.939 143.955 60.917 143.839 60.898 C 143.722 60.877 143.611 60.862 143.507 60.854 C 143.402 60.844 143.309 60.839 143.227 60.839 C 143.011 60.839 142.808 60.869 142.615 60.929 C 142.424 60.989 142.259 61.081 142.122 61.206 C 141.983 61.33 141.88 61.479 141.812 61.651 C 141.743 61.825 141.709 62.008 141.709 62.2 C 141.709 62.395 141.748 62.569 141.826 62.722 C 141.905 62.876 142.029 62.992 142.2 63.072 C 142.37 63.152 142.56 63.192 142.771 63.192 C 142.945 63.192 143.137 63.166 143.344 63.116 L 143.374 62.507 C 143.248 62.503 143.173 62.501 143.15 62.501 L 142.839 62.504 L 142.859 62.152 C 142.861 62.114 142.864 62.059 142.868 61.987 C 142.872 61.916 142.874 61.818 142.874 61.694 L 142.874 61.693 Z  M 145.221 63.964 C 145.335 62.433 145.392 61.255 145.392 60.429 L 145.389 60.061 C 145.731 60.065 145.96 60.067 146.075 60.067 C 146.128 60.067 146.339 60.065 146.706 60.061 C 146.67 60.49 146.642 60.896 146.62 61.279 C 146.592 61.812 146.572 62.312 146.56 62.776 C 146.548 63.24 146.542 63.636 146.542 63.964 L 145.942 63.958 C 145.825 63.958 145.584 63.96 145.222 63.964 L 145.221 63.964 Z  M 148.154 63.964 C 148.25 63.038 148.308 62.017 148.327 60.903 L 147.076 60.933 L 147.09 60.617 C 147.098 60.447 147.104 60.262 147.108 60.061 C 147.664 60.065 148.312 60.067 149.052 60.067 L 149.777 60.063 L 150.483 60.063 L 150.864 60.06 L 150.846 60.339 C 150.839 60.49 150.833 60.614 150.83 60.711 C 150.827 60.809 150.826 60.883 150.826 60.932 C 150.407 60.913 150.062 60.903 149.79 60.903 L 149.585 60.903 C 149.555 61.24 149.533 61.551 149.517 61.837 C 149.495 62.246 149.479 62.643 149.467 63.029 C 149.455 63.414 149.449 63.726 149.449 63.964 C 149.128 63.96 148.922 63.958 148.827 63.958 C 148.744 63.958 148.519 63.96 148.154 63.964 L 148.154 63.964 Z  M 150.552 63.964 L 150.795 63.553 L 152.312 60.767 L 152.473 60.456 C 152.521 60.364 152.586 60.232 152.67 60.061 C 153.014 60.065 153.266 60.067 153.424 60.067 C 153.7 60.067 153.955 60.065 154.191 60.061 L 154.619 61.254 L 155.491 63.547 L 155.661 63.964 C 155.323 63.96 155.117 63.958 155.045 63.958 C 154.881 63.958 154.639 63.96 154.32 63.964 C 154.234 63.649 154.11 63.278 153.946 62.852 L 152.468 62.852 C 152.299 63.189 152.124 63.559 151.942 63.964 C 151.578 63.96 151.354 63.958 151.272 63.958 C 151.123 63.958 150.883 63.96 150.552 63.964 Z  M 152.823 62.021 L 153.735 62.021 C 153.507 61.349 153.383 60.978 153.361 60.91 C 153.233 61.19 153.124 61.419 153.034 61.599 L 152.823 62.021 Z  M 155.944 63.964 C 155.992 63.515 156.027 63.147 156.048 62.863 C 156.089 62.345 156.119 61.829 156.14 61.318 C 156.161 60.806 156.171 60.386 156.171 60.061 C 156.437 60.065 156.672 60.067 156.878 60.067 C 157.017 60.067 157.217 60.065 157.477 60.061 L 157.407 61.097 L 157.318 62.718 L 157.307 63.116 C 157.643 63.121 157.864 63.124 157.965 63.124 C 158.481 63.124 158.872 63.118 159.136 63.104 L 159.07 63.964 C 158.555 63.96 158.065 63.958 157.599 63.958 C 156.969 63.958 156.418 63.96 155.944 63.964 L 155.944 63.964 Z " fill-rule="evenodd" fill="rgb(227,0,22)"/></g></g></svg>